<?xml version="1.0" encoding="UTF-8"?>
<!DOCTYPE svg  PUBLIC '-//W3C//DTD SVG 1.1//EN'  'http://www.w3.org/Graphics/SVG/1.1/DTD/svg11.dtd'>
<svg width="848.81pt" height="339.28pt" version="1.1" viewBox="0 0 848.81 339.28" xmlns="http://www.w3.org/2000/svg" xmlns:xlink="http://www.w3.org/1999/xlink">
<metadata>
<rdf:RDF xmlns:cc="http://creativecommons.org/ns#" xmlns:dc="http://purl.org/dc/elements/1.1/" xmlns:rdf="http://www.w3.org/1999/02/22-rdf-syntax-ns#">
<cc:Work>
<dc:type rdf:resource="http://purl.org/dc/dcmitype/StillImage"/>
<dc:date>2026-07-22T10:37:08.852642</dc:date>
<dc:format>image/svg+xml</dc:format>
<dc:creator>
<cc:Agent>
<dc:title>Matplotlib v3.10.9, https://matplotlib.org/</dc:title>
</cc:Agent>
</dc:creator>
</cc:Work>
</rdf:RDF>
</metadata>
<defs>
<style type="text/css">*{stroke-linejoin: round; stroke-linecap: butt}</style>
</defs>
<path d="m0 339.28h848.81v-339.28h-848.81z" fill="#fff"/>
<path d="m50.565 207.34h195.12v-185.02h-195.12z" fill="#fff"/>
<defs>
<path id="j" d="m0 0v-6" stroke="#000" stroke-width="2"/>
</defs>
<use x="50.565" y="207.344" stroke="#000000" stroke-width="2" xlink:href="#j"/>
<defs>
<path id="i" d="m0 0v6" stroke="#000" stroke-width="2"/>
</defs>
<use x="50.565" y="22.32" stroke="#000000" stroke-width="2" xlink:href="#i"/>
<use x="148.12554" y="207.344" stroke="#000000" stroke-width="2" xlink:href="#j"/>
<use x="148.12554" y="22.32" stroke="#000000" stroke-width="2" xlink:href="#i"/>
<use x="245.68608" y="207.344" stroke="#000000" stroke-width="2" xlink:href="#j"/>
<use x="245.68608" y="22.32" stroke="#000000" stroke-width="2" xlink:href="#i"/>
<defs>
<path id="d" d="m0 0v-4.5" stroke="#000"/>
</defs>
<use x="79.933649" y="207.344" stroke="#000000" xlink:href="#d"/>
<defs>
<path id="c" d="m0 0v4.5" stroke="#000"/>
</defs>
<use x="79.933649" y="22.32" stroke="#000000" xlink:href="#c"/>
<use x="97.113207" y="207.344" stroke="#000000" xlink:href="#d"/>
<use x="97.113207" y="22.32" stroke="#000000" xlink:href="#c"/>
<use x="109.302298" y="207.344" stroke="#000000" xlink:href="#d"/>
<use x="109.302298" y="22.32" stroke="#000000" xlink:href="#c"/>
<use x="118.756891" y="207.344" stroke="#000000" xlink:href="#d"/>
<use x="118.756891" y="22.32" stroke="#000000" xlink:href="#c"/>
<use x="126.481856" y="207.344" stroke="#000000" xlink:href="#d"/>
<use x="126.481856" y="22.32" stroke="#000000" xlink:href="#c"/>
<use x="133.013221" y="207.344" stroke="#000000" xlink:href="#d"/>
<use x="133.013221" y="22.32" stroke="#000000" xlink:href="#c"/>
<use x="138.670947" y="207.344" stroke="#000000" xlink:href="#d"/>
<use x="138.670947" y="22.32" stroke="#000000" xlink:href="#c"/>
<use x="143.661415" y="207.344" stroke="#000000" xlink:href="#d"/>
<use x="143.661415" y="22.32" stroke="#000000" xlink:href="#c"/>
<use x="177.494189" y="207.344" stroke="#000000" xlink:href="#d"/>
<use x="177.494189" y="22.32" stroke="#000000" xlink:href="#c"/>
<use x="194.673747" y="207.344" stroke="#000000" xlink:href="#d"/>
<use x="194.673747" y="22.32" stroke="#000000" xlink:href="#c"/>
<use x="206.862838" y="207.344" stroke="#000000" xlink:href="#d"/>
<use x="206.862838" y="22.32" stroke="#000000" xlink:href="#c"/>
<use x="216.317431" y="207.344" stroke="#000000" xlink:href="#d"/>
<use x="216.317431" y="22.32" stroke="#000000" xlink:href="#c"/>
<use x="224.042396" y="207.344" stroke="#000000" xlink:href="#d"/>
<use x="224.042396" y="22.32" stroke="#000000" xlink:href="#c"/>
<use x="230.573761" y="207.344" stroke="#000000" xlink:href="#d"/>
<use x="230.573761" y="22.32" stroke="#000000" xlink:href="#c"/>
<use x="236.231487" y="207.344" stroke="#000000" xlink:href="#d"/>
<use x="236.231487" y="22.32" stroke="#000000" xlink:href="#c"/>
<use x="241.221955" y="207.344" stroke="#000000" xlink:href="#d"/>
<use x="241.221955" y="22.32" stroke="#000000" xlink:href="#c"/>
<defs>
<path id="f" d="m0 0h6" stroke="#000" stroke-width="2"/>
</defs>
<use x="50.565" y="179.82175" stroke="#000000" stroke-width="2" xlink:href="#f"/>
<defs>
<path id="e" d="m0 0h-6" stroke="#000" stroke-width="2"/>
</defs>
<use x="245.68608" y="179.82175" stroke="#000000" stroke-width="2" xlink:href="#e"/>
<g transform="translate(25.945 184.38) scale(.12 -.12)">
<defs>
<path id="h" transform="scale(.015625)" d="m794 531h1031v3560l-1122-225v575l1116 225h631v-4135h1031v-531h-2687v531z"/>
<path id="g" transform="scale(.015625)" d="m2034 4250q-487 0-733-480-245-479-245-1442 0-959 245-1439 246-480 733-480 491 0 736 480 246 480 246 1439 0 963-246 1442-245 480-736 480zm0 500q785 0 1199-621 414-620 414-1801 0-1178-414-1799-414-620-1199-620-784 0-1198 620-414 621-414 1799 0 1181 414 1801 414 621 1198 621z"/>
<path id="r" transform="scale(.015625)" d="m691 4666h2478v-532h-1900v-1143q137 47 274 70 138 23 276 23 781 0 1237-428 457-428 457-1159 0-753-469-1171-469-417-1322-417-294 0-599 50-304 50-629 150v635q281-153 581-228t634-75q541 0 856 284 316 284 316 772 0 487-316 771-315 285-856 285-253 0-505-56-251-56-513-175v2344z"/>
</defs>
<use transform="translate(0 .68438)" xlink:href="#h"/>
<use transform="translate(63.623 .68438)" xlink:href="#g"/>
<use transform="translate(128.2 38.966) scale(.7)" xlink:href="#r"/>
</g>
<use x="50.565" y="140.446313" stroke="#000000" stroke-width="2" xlink:href="#f"/>
<use x="245.68608" y="140.446313" stroke="#000000" stroke-width="2" xlink:href="#e"/>
<g transform="translate(25.945 145.01) scale(.12 -.12)">
<defs>
<path id="bh" transform="scale(.015625)" d="m2113 2584q-425 0-674-291-248-290-248-796 0-503 248-796 249-292 674-292t673 292q248 293 248 796 0 506-248 796-248 291-673 291zm1253 1979v-575q-238 112-480 171-242 60-480 60-625 0-955-422-329-422-376-1275 184 272 462 417 279 145 613 145 703 0 1111-427 408-426 408-1160 0-719-425-1154-425-434-1131-434-810 0-1238 620-428 621-428 1799 0 1106 525 1764t1409 658q238 0 480-47t505-140z"/>
</defs>
<use transform="translate(0 .76562)" xlink:href="#h"/>
<use transform="translate(63.623 .76562)" xlink:href="#g"/>
<use transform="translate(128.2 39.047) scale(.7)" xlink:href="#bh"/>
</g>
<use x="50.565" y="101.070875" stroke="#000000" stroke-width="2" xlink:href="#f"/>
<use x="245.68608" y="101.070875" stroke="#000000" stroke-width="2" xlink:href="#e"/>
<g transform="translate(25.945 105.63) scale(.12 -.12)">
<defs>
<path id="bg" transform="scale(.015625)" d="m525 4666h3e3v-269l-1694-4397h-659l1594 4134h-2241v532z"/>
</defs>
<use transform="translate(0 .68438)" xlink:href="#h"/>
<use transform="translate(63.623 .68438)" xlink:href="#g"/>
<use transform="translate(128.2 38.966) scale(.7)" xlink:href="#bg"/>
</g>
<use x="50.565" y="61.695438" stroke="#000000" stroke-width="2" xlink:href="#f"/>
<use x="245.68608" y="61.695438" stroke="#000000" stroke-width="2" xlink:href="#e"/>
<g transform="translate(25.945 66.254) scale(.12 -.12)">
<defs>
<path id="bf" transform="scale(.015625)" d="m2034 2216q-450 0-708-241-257-241-257-662 0-422 257-663 258-241 708-241t709 242q260 243 260 662 0 421-258 662-257 241-711 241zm-631 268q-406 100-633 378-226 279-226 679 0 559 398 884 399 325 1092 325 697 0 1094-325t397-884q0-400-227-679-226-278-629-378 456-106 710-416 255-309 255-755 0-679-414-1042-414-362-1186-362-771 0-1186 362-414 363-414 1042 0 446 256 755 257 310 713 416zm-231 997q0-362 226-565 227-203 636-203 407 0 636 203 230 203 230 565 0 363-230 566-229 203-636 203-409 0-636-203-226-203-226-566z"/>
</defs>
<use transform="translate(0 .76562)" xlink:href="#h"/>
<use transform="translate(63.623 .76562)" xlink:href="#g"/>
<use transform="translate(128.2 39.047) scale(.7)" xlink:href="#bf"/>
</g>
<use x="50.565" y="22.32" stroke="#000000" stroke-width="2" xlink:href="#f"/>
<use x="245.68608" y="22.32" stroke="#000000" stroke-width="2" xlink:href="#e"/>
<g transform="translate(25.945 26.879) scale(.12 -.12)">
<defs>
<path id="z" transform="scale(.015625)" d="m703 97v575q238-113 481-172 244-59 479-59 625 0 954 420 330 420 377 1277-181-269-460-413-278-144-615-144-700 0-1108 423-408 424-408 1159 0 718 425 1152 425 435 1131 435 810 0 1236-621 427-620 427-1801 0-1103-524-1761-523-658-1407-658-238 0-482 47-243 47-506 141zm1256 1978q425 0 673 290 249 291 249 798 0 503-249 795-248 292-673 292t-673-292-248-795q0-507 248-798 248-290 673-290z"/>
</defs>
<use transform="translate(0 .76562)" xlink:href="#h"/>
<use transform="translate(63.623 .76562)" xlink:href="#g"/>
<use transform="translate(128.2 39.047) scale(.7)" xlink:href="#z"/>
</g>
<defs>
<path id="a" d="m0 0h4.5" stroke="#000"/>
</defs>
<use x="50.565" y="207.344" stroke="#000000" xlink:href="#a"/>
<defs>
<path id="b" d="m0 0h-4.5" stroke="#000"/>
</defs>
<use x="245.68608" y="207.344" stroke="#000000" xlink:href="#b"/>
<use x="50.565" y="200.41033" stroke="#000000" xlink:href="#a"/>
<use x="245.68608" y="200.41033" stroke="#000000" xlink:href="#b"/>
<use x="50.565" y="195.490812" stroke="#000000" xlink:href="#a"/>
<use x="245.68608" y="195.490812" stroke="#000000" xlink:href="#b"/>
<use x="50.565" y="191.674938" stroke="#000000" xlink:href="#a"/>
<use x="245.68608" y="191.674938" stroke="#000000" xlink:href="#b"/>
<use x="50.565" y="188.557142" stroke="#000000" xlink:href="#a"/>
<use x="245.68608" y="188.557142" stroke="#000000" xlink:href="#b"/>
<use x="50.565" y="185.921083" stroke="#000000" xlink:href="#a"/>
<use x="245.68608" y="185.921083" stroke="#000000" xlink:href="#b"/>
<use x="50.565" y="183.637624" stroke="#000000" xlink:href="#a"/>
<use x="245.68608" y="183.637624" stroke="#000000" xlink:href="#b"/>
<use x="50.565" y="181.623471" stroke="#000000" xlink:href="#a"/>
<use x="245.68608" y="181.623471" stroke="#000000" xlink:href="#b"/>
<use x="50.565" y="167.968562" stroke="#000000" xlink:href="#a"/>
<use x="245.68608" y="167.968562" stroke="#000000" xlink:href="#b"/>
<use x="50.565" y="161.034892" stroke="#000000" xlink:href="#a"/>
<use x="245.68608" y="161.034892" stroke="#000000" xlink:href="#b"/>
<use x="50.565" y="156.115375" stroke="#000000" xlink:href="#a"/>
<use x="245.68608" y="156.115375" stroke="#000000" xlink:href="#b"/>
<use x="50.565" y="152.2995" stroke="#000000" xlink:href="#a"/>
<use x="245.68608" y="152.2995" stroke="#000000" xlink:href="#b"/>
<use x="50.565" y="149.181704" stroke="#000000" xlink:href="#a"/>
<use x="245.68608" y="149.181704" stroke="#000000" xlink:href="#b"/>
<use x="50.565" y="146.545645" stroke="#000000" xlink:href="#a"/>
<use x="245.68608" y="146.545645" stroke="#000000" xlink:href="#b"/>
<use x="50.565" y="144.262187" stroke="#000000" xlink:href="#a"/>
<use x="245.68608" y="144.262187" stroke="#000000" xlink:href="#b"/>
<use x="50.565" y="142.248034" stroke="#000000" xlink:href="#a"/>
<use x="245.68608" y="142.248034" stroke="#000000" xlink:href="#b"/>
<use x="50.565" y="128.593125" stroke="#000000" xlink:href="#a"/>
<use x="245.68608" y="128.593125" stroke="#000000" xlink:href="#b"/>
<use x="50.565" y="121.659455" stroke="#000000" xlink:href="#a"/>
<use x="245.68608" y="121.659455" stroke="#000000" xlink:href="#b"/>
<use x="50.565" y="116.739937" stroke="#000000" xlink:href="#a"/>
<use x="245.68608" y="116.739937" stroke="#000000" xlink:href="#b"/>
<use x="50.565" y="112.924063" stroke="#000000" xlink:href="#a"/>
<use x="245.68608" y="112.924063" stroke="#000000" xlink:href="#b"/>
<use x="50.565" y="109.806267" stroke="#000000" xlink:href="#a"/>
<use x="245.68608" y="109.806267" stroke="#000000" xlink:href="#b"/>
<use x="50.565" y="107.170208" stroke="#000000" xlink:href="#a"/>
<use x="245.68608" y="107.170208" stroke="#000000" xlink:href="#b"/>
<use x="50.565" y="104.886749" stroke="#000000" xlink:href="#a"/>
<use x="245.68608" y="104.886749" stroke="#000000" xlink:href="#b"/>
<use x="50.565" y="102.872596" stroke="#000000" xlink:href="#a"/>
<use x="245.68608" y="102.872596" stroke="#000000" xlink:href="#b"/>
<use x="50.565" y="89.217687" stroke="#000000" xlink:href="#a"/>
<use x="245.68608" y="89.217687" stroke="#000000" xlink:href="#b"/>
<use x="50.565" y="82.284017" stroke="#000000" xlink:href="#a"/>
<use x="245.68608" y="82.284017" stroke="#000000" xlink:href="#b"/>
<use x="50.565" y="77.3645" stroke="#000000" xlink:href="#a"/>
<use x="245.68608" y="77.3645" stroke="#000000" xlink:href="#b"/>
<use x="50.565" y="73.548625" stroke="#000000" xlink:href="#a"/>
<use x="245.68608" y="73.548625" stroke="#000000" xlink:href="#b"/>
<use x="50.565" y="70.430829" stroke="#000000" xlink:href="#a"/>
<use x="245.68608" y="70.430829" stroke="#000000" xlink:href="#b"/>
<use x="50.565" y="67.79477" stroke="#000000" xlink:href="#a"/>
<use x="245.68608" y="67.79477" stroke="#000000" xlink:href="#b"/>
<use x="50.565" y="65.511312" stroke="#000000" xlink:href="#a"/>
<use x="245.68608" y="65.511312" stroke="#000000" xlink:href="#b"/>
<use x="50.565" y="63.497159" stroke="#000000" xlink:href="#a"/>
<use x="245.68608" y="63.497159" stroke="#000000" xlink:href="#b"/>
<use x="50.565" y="49.84225" stroke="#000000" xlink:href="#a"/>
<use x="245.68608" y="49.84225" stroke="#000000" xlink:href="#b"/>
<use x="50.565" y="42.908579" stroke="#000000" xlink:href="#a"/>
<use x="245.68608" y="42.908579" stroke="#000000" xlink:href="#b"/>
<use x="50.565" y="37.989062" stroke="#000000" xlink:href="#a"/>
<use x="245.68608" y="37.989062" stroke="#000000" xlink:href="#b"/>
<use x="50.565" y="34.173188" stroke="#000000" xlink:href="#a"/>
<use x="245.68608" y="34.173188" stroke="#000000" xlink:href="#b"/>
<use x="50.565" y="31.055392" stroke="#000000" xlink:href="#a"/>
<use x="245.68608" y="31.055392" stroke="#000000" xlink:href="#b"/>
<use x="50.565" y="28.419332" stroke="#000000" xlink:href="#a"/>
<use x="245.68608" y="28.419332" stroke="#000000" xlink:href="#b"/>
<use x="50.565" y="26.135874" stroke="#000000" xlink:href="#a"/>
<use x="245.68608" y="26.135874" stroke="#000000" xlink:href="#b"/>
<use x="50.565" y="24.121721" stroke="#000000" xlink:href="#a"/>
<use x="245.68608" y="24.121721" stroke="#000000" xlink:href="#b"/>
<g transform="translate(19.425 150.65) rotate(-90) scale(.12 -.12)">
<defs>
<path id="ax" transform="scale(.015625)" d="m1203 2875q250 319 778 600 207 109 775 109 638 0 938-506t140-1331q-162-825-659-1332-497-506-1134-506-385 0-632 154-246 150-365 462l-363-1856h-578l594 3047q141 722 506 1159zm2035-1128q121 634-69 997-191 359-647 359t-788-359q-331-363-453-997-125-634 66-997 191-359 647-359t787 359q332 363 457 997z"/>
<path id="av" transform="scale(.015625)" d="m2323-1050h-1171v7872h1171v-211h-723v-7449h723v-212z"/>
<path id="q" transform="scale(.015625)" d="m628 4666h941l1190-3175 1197 3175h941v-4666h-616v4097l-1203-3200h-634l-1203 3200v-4097h-613v4666z"/>
<path id="t" transform="scale(.015625)" d="m2350 2403h663v-794h-663v794zm956 1119q-290 122-625 122-334 0-625-122-287-122-525-359-240-241-359-529-119-287-119-628 0-331 119-619 119-287 359-528 238-237 525-359 291-122 625-122 335 0 625 122 288 122 525 359 241 241 359 528 119 288 119 619 0 341-119 628-118 288-359 529-237 237-525 359zm-1428 434q372 157 803 157 432 0 803-157 372-156 679-462 309-310 462-681 153-369 153-807 0-428-153-800-153-368-462-678-307-306-679-463-371-156-803-156-431 0-803 156-372 157-678 463-309 310-462 678-154 372-154 800 0 438 154 807 153 371 462 681 306 306 678 462z"/>
<path id="aq" transform="scale(.015625)" d="m581 4863h578v-2872l1716 1509h734l-1856-1637 1935-1863h-750l-1779 1709v-1709h-578v4863z"/>
<path id="ao" transform="scale(.015625)" d="m1159 525v-1856h-578v4831h578v-531q182 312 458 463 277 152 661 152 638 0 1036-506 399-506 399-1331t-399-1332q-398-506-1036-506-384 0-661 152-276 152-458 464zm1957 1222q0 634-261 995t-717 361q-457 0-718-361t-261-995 261-995 718-361q456 0 717 361t261 995z"/>
<path id="aj" transform="scale(.015625)" d="m3122 3366v-538q-244 135-489 202t-495 67q-560 0-870-355-309-354-309-995t309-996q310-354 870-354 250 0 495 67t489 202v-532q-241-112-499-168-257-57-548-57-791 0-1257 497-465 497-465 1341 0 856 470 1346 471 491 1290 491 265 0 518-55 253-54 491-163z"/>
<path id="am" transform="scale(.015625)" d="m678 2272h4006v-531h-4006v531z"/>
<path id="at" transform="scale(.015625)" d="m2597 2516q453-97 707-404 255-306 255-756 0-690-475-1069-475-378-1350-378-293 0-604 58t-642 174v609q262-153 574-231 313-78 654-78 593 0 904 234t311 681q0 413-289 645-289 233-804 233h-544v519h569q465 0 712 186t247 536q0 359-255 551-254 193-729 193-260 0-557-57-297-56-653-174v562q360 100 674 150t592 50q719 0 1137-327 419-326 419-882 0-388-222-655t-631-370z"/>
<path id="au" transform="scale(.015625)" d="m1299-1050h-1171v212h723v7449h-723v211h1171v-7872z"/>
</defs>
<use transform="translate(0 .76562)" xlink:href="#ax"/>
<use transform="translate(79.712 -5.2656) scale(.90269)" xlink:href="#av"/>
<use transform="translate(114.28 .76562)" xlink:href="#q"/>
<use transform="translate(201.51 -15.641) scale(.7)" xlink:href="#t"/>
<use transform="translate(279.14 .76562)" xlink:href="#aq"/>
<use transform="translate(337.05 .76562)" xlink:href="#ao"/>
<use transform="translate(400.52 .76562)" xlink:href="#aj"/>
<use transform="translate(456.46 39.047) scale(.7)" xlink:href="#am"/>
<use transform="translate(515.11 39.047) scale(.7)" xlink:href="#at"/>
<use transform="translate(562.38 -5.2656) scale(.90269)" xlink:href="#au"/>
</g>
<path d="m50.565 37.13 6.7283 25.714 6.7283-6.1532 6.7283 0.46149 6.7283 1.7651 6.7283-8.1762 6.7283 1.037 6.7283 3.5589 6.7283-0.29966 6.7283 0.8527 6.7283 3.4895 6.7283 2.7237 6.7283 3.1905 6.7283 5.3179 6.7283 4.2074 6.7283 6.8096 6.7283 6.3545 6.7283 8.5392 6.7283 7.1436 6.7283 6.3652 6.7283 8.5227 6.7283 8.2648 6.7283 7.4954 6.7283 6.3042 6.7283 6.4808 6.7283 6.1329 6.7283 5.2251 6.7283 5.6828 6.7283 4.0124 6.7283 4.631" clip-path="url(#ai)" fill="none" stroke="#2094b5" stroke-linecap="square" stroke-width="1.5"/>
<path d="m50.565 83.12 6.7283 1.5297 6.7283-3.4329 6.7283 3.8712 6.7283 1.0527 6.7283-2.8857 6.7283 1.6432 6.7283 1.9612 6.7283-0.62288 6.7283 4.7018 6.7283 0.58635 6.7283 2.2066 6.7283 3.4295 6.7283 3.8917 6.7283 2.3698 6.7283 3.375 6.7283 4.9079 6.7283 4.7492 6.7283 5.4598 6.7283 4.3674 6.7283 5.0649 6.7283 3.7324 6.7283 4.1237 6.7283 3.225 6.7283 5.1432 6.7283 4.1766 6.7283 4.6671 6.7283 5.3546 6.7283 6.3223 6.7283 6.2766" clip-path="url(#ai)" fill="none" stroke="#8a2be2" stroke-linecap="square" stroke-width="1.5"/>
<path d="m50.565 87.972 6.7283 1.3391 6.7283 2.6175 6.7283-2.5187 6.7283-0.95311 6.7283 0.27494 6.7283 4.0197 6.7283-0.44587 6.7283 2.1059 6.7283 1.5341 6.7283 1.1075 6.7283 2.7878 6.7283 3.543 6.7283 2.9693 6.7283 4.1612 6.7283 4.3773 6.7283 5.0522 6.7283 5.3379 6.7283 6.5263 6.7283 6.6082 6.7283 7.1295 6.7283 6.6307 6.7283 6.2873 6.7283 7.0004 6.7283 6.2422 6.7283 5.5197 6.7283 5.2901 6.7283 4.6698 6.7283 5.6187 6.7283 4.703" clip-path="url(#ai)" fill="none" stroke="#d20f39" stroke-linecap="square" stroke-width="1.5"/>
<path d="m50.565 207.34v-185.02" fill="none" stroke="#000" stroke-linecap="square" stroke-width="2"/>
<path d="m245.69 207.34v-185.02" fill="none" stroke="#000" stroke-linecap="square" stroke-width="2"/>
<path d="m50.565 207.34h195.12" fill="none" stroke="#000" stroke-linecap="square" stroke-width="2"/>
<path d="m50.565 22.32h195.12" fill="none" stroke="#000" stroke-linecap="square" stroke-width="2"/>
<g transform="translate(74.926 16.32) scale(.12 -.12)">
<defs>
<path id="n" transform="scale(.015625)" d="m684 794h660v-794h-660v794z"/>
<path id="aa" transform="scale(.015625)" d="m4684 3175-3e3 -866 3e3 -856v-556l-4006 1150v531l4006 1147v-550zm-4006-2644h4006v-531h-4006v531z"/>
<path id="w" transform="scale(.015625)" d="m603 4863h575v-4863h-575v4863z"/>
<path id="v" transform="scale(.015625)" d="m1959 3097q-462 0-731-361t-269-989 267-989q268-361 733-361 460 0 728 362 269 363 269 988 0 622-269 986-268 364-728 364zm0 487q750 0 1178-488 429-487 429-1349 0-859-429-1349-428-489-1178-489-753 0-1180 489-426 490-426 1349 0 862 426 1349 427 488 1180 488z"/>
<path id="y" transform="scale(.015625)" d="m2906 1791q0 625-258 968-257 344-723 344-462 0-720-344-258-343-258-968 0-622 258-966t720-344q466 0 723 344 258 344 258 966zm575-1357q0-893-397-1329-396-436-1215-436-303 0-572 45t-522 139v559q253-137 500-202 247-66 503-66 566 0 847 295t281 892v285q-178-310-456-463t-666-153q-643 0-1037 490-394 491-394 1301 0 812 394 1302 394 491 1037 491 388 0 666-153t456-462v531h575v-3066z"/>
<path id="u" transform="scale(.015625)" d="m1081 4666h947l544-3144 1806 3144h972l-909-4666h-613l794 4091-1831-3194h-616l-594 3206-793-4103h-616l909 4666z"/>
<path id="m" transform="scale(.015625)" d="m416 2850h1872l581 1778 584-1778h1869l-1513-1103 582-1775-1522 1100-1519-1100 578 1775-1512 1103z"/>
<path id="p" transform="scale(.015625)" d="m550 4863h1325v-447h-750v-4813h750v-447h-1325v5707z"/>
<path id="o" transform="scale(.015625)" d="m1947 4863v-5707h-1325v447h747v4813h-747v447h1325z"/>
<path id="al" transform="scale(.015625)" d="m4684 3150-3225-1147 3225-1140v-569l-4006 1453v519l4006 1453v-569z"/>
</defs>
<use transform="translate(0 .015625)" xlink:href="#z"/>
<use transform="translate(63.623 .015625)" xlink:href="#n"/>
<use transform="translate(95.41 .015625)" xlink:href="#g"/>
<use transform="translate(178.52 .015625)" xlink:href="#aa"/>
<use transform="translate(281.79 .015625)" xlink:href="#w"/>
<use transform="translate(309.57 .015625)" xlink:href="#v"/>
<use transform="translate(370.75 .015625)" xlink:href="#y"/>
<use transform="translate(435.19 -16.391) scale(.7)" xlink:href="#h"/>
<use transform="translate(479.72 -16.391) scale(.7)" xlink:href="#g"/>
<use transform="translate(543.23 .015625)" xlink:href="#u"/>
<use transform="translate(629.51 -16.391) scale(.7)" xlink:href="#m"/>
<use transform="translate(711.23 .015625)" xlink:href="#p"/>
<use transform="translate(750.24 .015625)" xlink:href="#q"/>
<use transform="translate(837.48 -16.391) scale(.7)" xlink:href="#t"/>
<use transform="translate(898.87 .015625)" xlink:href="#o"/>
<use transform="translate(957.36 .015625)" xlink:href="#al"/>
<use transform="translate(1060.6 .015625)" xlink:href="#z"/>
<use transform="translate(1124.3 .015625)" xlink:href="#n"/>
<use transform="translate(1156 .015625)" xlink:href="#r"/>
</g>
<path d="m58.965 201.34h90.868q2.4 0 2.4-2.4v-51.641q0-2.4-2.4-2.4h-90.868q-2.4 0-2.4 2.4v51.641q0 2.4 2.4 2.4z" fill="#fff" opacity=".8" stroke="#ccc"/>
<path d="m61.365 154.62h12 12" fill="none" stroke="#2094b5" stroke-linecap="square" stroke-width="1.5"/>
<g transform="translate(94.965 158.82) scale(.12 -.12)">
<defs>
<path id="ak" transform="scale(.015625)" d="m2194 1759q-697 0-966-159t-269-544q0-306 202-486 202-179 548-179 479 0 768 339t289 901v128h-572zm1147 238v-1997h-575v531q-197-318-491-470t-719-152q-537 0-855 302-317 302-317 808 0 590 395 890 396 300 1180 300h807v57q0 397-261 614t-733 217q-300 0-585-72-284-72-546-216v532q315 122 612 182 297 61 578 61 760 0 1135-394 375-393 375-1193z"/>
<path id="as" transform="scale(.015625)" d="m2906 2969v1894h575v-4863h-575v525q-181-312-458-464-276-152-664-152-634 0-1033 506-398 507-398 1332t398 1331q399 506 1033 506 388 0 664-152 277-151 458-463zm-1959-1222q0-634 261-995t717-361 718 361q263 361 263 995t-263 995q-262 361-718 361t-717-361-261-995z"/>
<path id="bb" transform="scale(.015625)" d="m1172 4494v-994h1184v-447h-1184v-1900q0-428 117-550t477-122h590v-481h-590q-666 0-919 248-253 249-253 905v1900h-422v447h422v994h578z"/>
<path id="x" transform="scale(.015625)" d="m603 3500h575v-3500h-575v3500zm0 1363h575v-729h-575v729z"/>
<path id="ba" transform="scale(.015625)" d="m191 3500h609l1094-2937 1094 2937h609l-1313-3500h-781l-1312 3500z"/>
<path id="ar" transform="scale(.015625)" d="m3597 1894v-281h-2644q38-594 358-905t892-311q331 0 642 81t618 244v-544q-310-131-635-200t-659-69q-838 0-1327 487-489 488-489 1320 0 859 464 1363 464 505 1252 505 706 0 1117-455 411-454 411-1235zm-575 169q-6 471-264 752-258 282-683 282-481 0-770-272t-333-766l2050 4z"/>
</defs>
<use xlink:href="#ak"/>
<use transform="translate(61.279)" xlink:href="#as"/>
<use transform="translate(124.76)" xlink:href="#ak"/>
<use transform="translate(186.04)" xlink:href="#ao"/>
<use transform="translate(249.51)" xlink:href="#bb"/>
<use transform="translate(288.72)" xlink:href="#x"/>
<use transform="translate(316.5)" xlink:href="#ba"/>
<use transform="translate(375.68)" xlink:href="#ar"/>
</g>
<path d="m61.365 172.23h12 12" fill="none" stroke="#8a2be2" stroke-linecap="square" stroke-width="1.5"/>
<g transform="translate(94.965 176.43) scale(.12 -.12)">
<defs>
<path id="bd" transform="scale(.015625)" d="m2375 4863v-479h-550q-309 0-430-125-120-125-120-450v-309h947v-447h-947v-3053h-578v3053h-550v447h550v244q0 584 272 851 272 268 862 268h544z"/>
<path id="ay" transform="scale(.015625)" d="m3513 3500-1266-1703 1331-1797h-678l-1019 1375-1018-1375h-679l1360 1831-1244 1669h678l928-1247 928 1247h679z"/>
</defs>
<use xlink:href="#bd"/>
<use transform="translate(35.205)" xlink:href="#x"/>
<use transform="translate(62.988)" xlink:href="#ay"/>
<use transform="translate(119.04)" xlink:href="#ar"/>
<use transform="translate(180.57)" xlink:href="#as"/>
</g>
<path d="m61.365 189.85h12 12" fill="none" stroke="#d20f39" stroke-linecap="square" stroke-width="1.5"/>
<g transform="translate(94.965 194.05) scale(.12 -.12)">
<defs>
<path id="an" transform="scale(.015625)" d="m2834 3397v-544q-243 125-506 187-262 63-544 63-428 0-642-131t-214-394q0-200 153-314t616-217l197-44q612-131 870-370t258-667q0-488-386-773-386-284-1061-284-281 0-586 55t-642 164v594q319-166 628-249 309-82 613-82 406 0 624 139 219 139 219 392 0 234-158 359-157 125-692 241l-200 47q-534 112-772 345-237 233-237 639 0 494 350 762 350 269 994 269 318 0 599-47 282-46 519-140z"/>
<path id="az" transform="scale(.015625)" d="m269 3500h575l719-2731 715 2731h678l719-2731 716 2731h575l-916-3500h-678l-753 2869-756-2869h-679l-915 3500z"/>
<path id="ap" transform="scale(.015625)" d="m3328 2828q216 388 516 572t706 184q547 0 844-383 297-382 297-1088v-2113h-578v2094q0 503-179 746-178 244-543 244-447 0-707-297-259-296-259-809v-1978h-578v2094q0 506-178 748t-550 242q-441 0-701-298-259-298-259-808v-1978h-578v3500h578v-544q197 322 472 475t653 153q382 0 649-194 267-193 395-562z"/>
<path id="be" transform="scale(.015625)" d="m3116 1747q0 634-261 995t-717 361q-457 0-718-361t-261-995 261-995 718-361q456 0 717 361t261 995zm-1957 1222q182 312 458 463 277 152 661 152 638 0 1036-506 399-506 399-1331t-399-1332q-398-506-1036-506-384 0-661 152-276 152-458 464v-525h-578v4863h578v-1894z"/>
</defs>
<use xlink:href="#an"/>
<use transform="translate(52.1)" xlink:href="#az"/>
<use transform="translate(133.89)" xlink:href="#x"/>
<use transform="translate(161.67)" xlink:href="#ap"/>
<use transform="translate(259.08)" xlink:href="#be"/>
<use transform="translate(322.56)" xlink:href="#ak"/>
</g>
<path d="m245.69 207.34h195.12v-185.02h-195.12z" fill="#fff"/>
<use x="343.24662" y="207.344" stroke="#000000" stroke-width="2" xlink:href="#j"/>
<use x="343.24662" y="22.32" stroke="#000000" stroke-width="2" xlink:href="#i"/>
<use x="440.807161" y="207.344" stroke="#000000" stroke-width="2" xlink:href="#j"/>
<use x="440.807161" y="22.32" stroke="#000000" stroke-width="2" xlink:href="#i"/>
<use x="275.054729" y="207.344" stroke="#000000" xlink:href="#d"/>
<use x="275.054729" y="22.32" stroke="#000000" xlink:href="#c"/>
<use x="292.234288" y="207.344" stroke="#000000" xlink:href="#d"/>
<use x="292.234288" y="22.32" stroke="#000000" xlink:href="#c"/>
<use x="304.423378" y="207.344" stroke="#000000" xlink:href="#d"/>
<use x="304.423378" y="22.32" stroke="#000000" xlink:href="#c"/>
<use x="313.877972" y="207.344" stroke="#000000" xlink:href="#d"/>
<use x="313.877972" y="22.32" stroke="#000000" xlink:href="#c"/>
<use x="321.602937" y="207.344" stroke="#000000" xlink:href="#d"/>
<use x="321.602937" y="22.32" stroke="#000000" xlink:href="#c"/>
<use x="328.134302" y="207.344" stroke="#000000" xlink:href="#d"/>
<use x="328.134302" y="22.32" stroke="#000000" xlink:href="#c"/>
<use x="333.792027" y="207.344" stroke="#000000" xlink:href="#d"/>
<use x="333.792027" y="22.32" stroke="#000000" xlink:href="#c"/>
<use x="338.782495" y="207.344" stroke="#000000" xlink:href="#d"/>
<use x="338.782495" y="22.32" stroke="#000000" xlink:href="#c"/>
<use x="372.615269" y="207.344" stroke="#000000" xlink:href="#d"/>
<use x="372.615269" y="22.32" stroke="#000000" xlink:href="#c"/>
<use x="389.794828" y="207.344" stroke="#000000" xlink:href="#d"/>
<use x="389.794828" y="22.32" stroke="#000000" xlink:href="#c"/>
<use x="401.983918" y="207.344" stroke="#000000" xlink:href="#d"/>
<use x="401.983918" y="22.32" stroke="#000000" xlink:href="#c"/>
<use x="411.438512" y="207.344" stroke="#000000" xlink:href="#d"/>
<use x="411.438512" y="22.32" stroke="#000000" xlink:href="#c"/>
<use x="419.163477" y="207.344" stroke="#000000" xlink:href="#d"/>
<use x="419.163477" y="22.32" stroke="#000000" xlink:href="#c"/>
<use x="425.694842" y="207.344" stroke="#000000" xlink:href="#d"/>
<use x="425.694842" y="22.32" stroke="#000000" xlink:href="#c"/>
<use x="431.352567" y="207.344" stroke="#000000" xlink:href="#d"/>
<use x="431.352567" y="22.32" stroke="#000000" xlink:href="#c"/>
<use x="436.343035" y="207.344" stroke="#000000" xlink:href="#d"/>
<use x="436.343035" y="22.32" stroke="#000000" xlink:href="#c"/>
<use x="245.68608" y="179.82175" stroke="#000000" stroke-width="2" xlink:href="#f"/>
<use x="440.807161" y="179.82175" stroke="#000000" stroke-width="2" xlink:href="#e"/>
<use x="245.68608" y="140.446313" stroke="#000000" stroke-width="2" xlink:href="#f"/>
<use x="440.807161" y="140.446313" stroke="#000000" stroke-width="2" xlink:href="#e"/>
<use x="245.68608" y="101.070875" stroke="#000000" stroke-width="2" xlink:href="#f"/>
<use x="440.807161" y="101.070875" stroke="#000000" stroke-width="2" xlink:href="#e"/>
<use x="245.68608" y="61.695438" stroke="#000000" stroke-width="2" xlink:href="#f"/>
<use x="440.807161" y="61.695438" stroke="#000000" stroke-width="2" xlink:href="#e"/>
<use x="245.68608" y="22.32" stroke="#000000" stroke-width="2" xlink:href="#f"/>
<use x="440.807161" y="22.32" stroke="#000000" stroke-width="2" xlink:href="#e"/>
<use x="245.68608" y="207.344" stroke="#000000" xlink:href="#a"/>
<use x="440.807161" y="207.344" stroke="#000000" xlink:href="#b"/>
<use x="245.68608" y="200.41033" stroke="#000000" xlink:href="#a"/>
<use x="440.807161" y="200.41033" stroke="#000000" xlink:href="#b"/>
<use x="245.68608" y="195.490812" stroke="#000000" xlink:href="#a"/>
<use x="440.807161" y="195.490812" stroke="#000000" xlink:href="#b"/>
<use x="245.68608" y="191.674938" stroke="#000000" xlink:href="#a"/>
<use x="440.807161" y="191.674938" stroke="#000000" xlink:href="#b"/>
<use x="245.68608" y="188.557142" stroke="#000000" xlink:href="#a"/>
<use x="440.807161" y="188.557142" stroke="#000000" xlink:href="#b"/>
<use x="245.68608" y="185.921083" stroke="#000000" xlink:href="#a"/>
<use x="440.807161" y="185.921083" stroke="#000000" xlink:href="#b"/>
<use x="245.68608" y="183.637624" stroke="#000000" xlink:href="#a"/>
<use x="440.807161" y="183.637624" stroke="#000000" xlink:href="#b"/>
<use x="245.68608" y="181.623471" stroke="#000000" xlink:href="#a"/>
<use x="440.807161" y="181.623471" stroke="#000000" xlink:href="#b"/>
<use x="245.68608" y="167.968562" stroke="#000000" xlink:href="#a"/>
<use x="440.807161" y="167.968562" stroke="#000000" xlink:href="#b"/>
<use x="245.68608" y="161.034892" stroke="#000000" xlink:href="#a"/>
<use x="440.807161" y="161.034892" stroke="#000000" xlink:href="#b"/>
<use x="245.68608" y="156.115375" stroke="#000000" xlink:href="#a"/>
<use x="440.807161" y="156.115375" stroke="#000000" xlink:href="#b"/>
<use x="245.68608" y="152.2995" stroke="#000000" xlink:href="#a"/>
<use x="440.807161" y="152.2995" stroke="#000000" xlink:href="#b"/>
<use x="245.68608" y="149.181704" stroke="#000000" xlink:href="#a"/>
<use x="440.807161" y="149.181704" stroke="#000000" xlink:href="#b"/>
<use x="245.68608" y="146.545645" stroke="#000000" xlink:href="#a"/>
<use x="440.807161" y="146.545645" stroke="#000000" xlink:href="#b"/>
<use x="245.68608" y="144.262187" stroke="#000000" xlink:href="#a"/>
<use x="440.807161" y="144.262187" stroke="#000000" xlink:href="#b"/>
<use x="245.68608" y="142.248034" stroke="#000000" xlink:href="#a"/>
<use x="440.807161" y="142.248034" stroke="#000000" xlink:href="#b"/>
<use x="245.68608" y="128.593125" stroke="#000000" xlink:href="#a"/>
<use x="440.807161" y="128.593125" stroke="#000000" xlink:href="#b"/>
<use x="245.68608" y="121.659455" stroke="#000000" xlink:href="#a"/>
<use x="440.807161" y="121.659455" stroke="#000000" xlink:href="#b"/>
<use x="245.68608" y="116.739937" stroke="#000000" xlink:href="#a"/>
<use x="440.807161" y="116.739937" stroke="#000000" xlink:href="#b"/>
<use x="245.68608" y="112.924063" stroke="#000000" xlink:href="#a"/>
<use x="440.807161" y="112.924063" stroke="#000000" xlink:href="#b"/>
<use x="245.68608" y="109.806267" stroke="#000000" xlink:href="#a"/>
<use x="440.807161" y="109.806267" stroke="#000000" xlink:href="#b"/>
<use x="245.68608" y="107.170208" stroke="#000000" xlink:href="#a"/>
<use x="440.807161" y="107.170208" stroke="#000000" xlink:href="#b"/>
<use x="245.68608" y="104.886749" stroke="#000000" xlink:href="#a"/>
<use x="440.807161" y="104.886749" stroke="#000000" xlink:href="#b"/>
<use x="245.68608" y="102.872596" stroke="#000000" xlink:href="#a"/>
<use x="440.807161" y="102.872596" stroke="#000000" xlink:href="#b"/>
<use x="245.68608" y="89.217687" stroke="#000000" xlink:href="#a"/>
<use x="440.807161" y="89.217687" stroke="#000000" xlink:href="#b"/>
<use x="245.68608" y="82.284017" stroke="#000000" xlink:href="#a"/>
<use x="440.807161" y="82.284017" stroke="#000000" xlink:href="#b"/>
<use x="245.68608" y="77.3645" stroke="#000000" xlink:href="#a"/>
<use x="440.807161" y="77.3645" stroke="#000000" xlink:href="#b"/>
<use x="245.68608" y="73.548625" stroke="#000000" xlink:href="#a"/>
<use x="440.807161" y="73.548625" stroke="#000000" xlink:href="#b"/>
<use x="245.68608" y="70.430829" stroke="#000000" xlink:href="#a"/>
<use x="440.807161" y="70.430829" stroke="#000000" xlink:href="#b"/>
<use x="245.68608" y="67.79477" stroke="#000000" xlink:href="#a"/>
<use x="440.807161" y="67.79477" stroke="#000000" xlink:href="#b"/>
<use x="245.68608" y="65.511312" stroke="#000000" xlink:href="#a"/>
<use x="440.807161" y="65.511312" stroke="#000000" xlink:href="#b"/>
<use x="245.68608" y="63.497159" stroke="#000000" xlink:href="#a"/>
<use x="440.807161" y="63.497159" stroke="#000000" xlink:href="#b"/>
<use x="245.68608" y="49.84225" stroke="#000000" xlink:href="#a"/>
<use x="440.807161" y="49.84225" stroke="#000000" xlink:href="#b"/>
<use x="245.68608" y="42.908579" stroke="#000000" xlink:href="#a"/>
<use x="440.807161" y="42.908579" stroke="#000000" xlink:href="#b"/>
<use x="245.68608" y="37.989062" stroke="#000000" xlink:href="#a"/>
<use x="440.807161" y="37.989062" stroke="#000000" xlink:href="#b"/>
<use x="245.68608" y="34.173188" stroke="#000000" xlink:href="#a"/>
<use x="440.807161" y="34.173188" stroke="#000000" xlink:href="#b"/>
<use x="245.68608" y="31.055392" stroke="#000000" xlink:href="#a"/>
<use x="440.807161" y="31.055392" stroke="#000000" xlink:href="#b"/>
<use x="245.68608" y="28.419332" stroke="#000000" xlink:href="#a"/>
<use x="440.807161" y="28.419332" stroke="#000000" xlink:href="#b"/>
<use x="245.68608" y="26.135874" stroke="#000000" xlink:href="#a"/>
<use x="440.807161" y="26.135874" stroke="#000000" xlink:href="#b"/>
<use x="245.68608" y="24.121721" stroke="#000000" xlink:href="#a"/>
<use x="440.807161" y="24.121721" stroke="#000000" xlink:href="#b"/>
<path d="m245.69 56.089 6.7283 1.231 6.7283-1.405 6.7283-0.28139 6.7283-0.3108 6.7283 0.89134 6.7283 1.1473 6.7283 0.75214 6.7283 1.301 6.7283 1.6204 6.7283 2.9386 6.7283 3.6616 6.7283 5.2043 6.7283 6.8445 6.7283 7.843 6.7283 7.8723 6.7283 6.505 6.7283 6.5814 6.7283 5.8021 6.7283 5.9805 6.7283 5.8359 6.7283 6.4418 6.7283 7.2371 6.7283 7.4775 6.7283 7.6011 6.7283 6.3529 6.7283 5.0929 6.7283 5.9357 6.7283 4.1219 6.7283 3.4723" clip-path="url(#ad)" fill="none" stroke="#2094b5" stroke-linecap="square" stroke-width="1.5"/>
<path d="m245.69 82.036 6.7283 9.6118 6.7283-14.441 6.7283 7.8696 6.7283-4.4869 6.7283 9.973 6.7283-2.7451 6.7283-0.19862 6.7283 1.4638 6.7283 3.1234 6.7283 0.52005 6.7283 1.6943 6.7283 2.8827 6.7283 2.7507 6.7283 3.9108 6.7283 4.019 6.7283 4.7564 6.7283 6.171 6.7283 6.1058 6.7283 5.3621 6.7283 4.6534 6.7283 5.0611 6.7283 5.481 6.7283 4.6149 6.7283 4.0429 6.7283 5.4096 6.7283 7.502 6.7283 6.2361 6.7283 6.3913 6.7283 7.0481" clip-path="url(#ad)" fill="none" stroke="#8a2be2" stroke-linecap="square" stroke-width="1.5"/>
<path d="m245.69 81.51 6.7283 1.7697 6.7283 0.72893 6.7283-1.0063 6.7283 0.21376 6.7283 1.996 6.7283 0.41 6.7283-0.6016 6.7283 2.6807 6.7283 2.3317 6.7283 1.6229 6.7283 2.6003 6.7283 4.0722 6.7283 3.0958 6.7283 4.1656 6.7283 4.6225 6.7283 4.1125 6.7283 6.1869 6.7283 5.1768 6.7283 5.2931 6.7283 6.2965 6.7283 6.033 6.7283 5.6361 6.7283 5.7675 6.7283 5.4897 6.7283 5.3345 6.7283 6.5645 6.7283 5.6047 6.7283 5.6832 6.7283 5.7189" clip-path="url(#ad)" fill="none" stroke="#d20f39" stroke-linecap="square" stroke-width="1.5"/>
<path d="m245.69 207.34v-185.02" fill="none" stroke="#000" stroke-linecap="square" stroke-width="2"/>
<path d="m440.81 207.34v-185.02" fill="none" stroke="#000" stroke-linecap="square" stroke-width="2"/>
<path d="m245.69 207.34h195.12" fill="none" stroke="#000" stroke-linecap="square" stroke-width="2"/>
<path d="m245.69 22.32h195.12" fill="none" stroke="#000" stroke-linecap="square" stroke-width="2"/>
<g transform="translate(266.21 16.32) scale(.12 -.12)">
<use transform="translate(0 .015625)" xlink:href="#z"/>
<use transform="translate(63.623 .015625)" xlink:href="#n"/>
<use transform="translate(95.41 .015625)" xlink:href="#r"/>
<use transform="translate(178.52 .015625)" xlink:href="#aa"/>
<use transform="translate(281.79 .015625)" xlink:href="#w"/>
<use transform="translate(309.57 .015625)" xlink:href="#v"/>
<use transform="translate(370.75 .015625)" xlink:href="#y"/>
<use transform="translate(435.19 -16.391) scale(.7)" xlink:href="#h"/>
<use transform="translate(479.72 -16.391) scale(.7)" xlink:href="#g"/>
<use transform="translate(543.23 .015625)" xlink:href="#u"/>
<use transform="translate(629.51 -16.391) scale(.7)" xlink:href="#m"/>
<use transform="translate(711.23 .015625)" xlink:href="#p"/>
<use transform="translate(750.24 .015625)" xlink:href="#q"/>
<use transform="translate(837.48 -16.391) scale(.7)" xlink:href="#t"/>
<use transform="translate(898.87 .015625)" xlink:href="#o"/>
<use transform="translate(957.36 .015625)" xlink:href="#al"/>
<use transform="translate(1060.6 .015625)" xlink:href="#h"/>
<use transform="translate(1124.3 .015625)" xlink:href="#g"/>
<use transform="translate(1187.9 .015625)" xlink:href="#n"/>
<use transform="translate(1219.7 .015625)" xlink:href="#g"/>
</g>
<path d="m440.81 207.34h195.12v-185.02h-195.12z" fill="#fff"/>
<use x="538.367701" y="207.344" stroke="#000000" stroke-width="2" xlink:href="#j"/>
<use x="538.367701" y="22.32" stroke="#000000" stroke-width="2" xlink:href="#i"/>
<use x="635.928241" y="207.344" stroke="#000000" stroke-width="2" xlink:href="#j"/>
<use x="635.928241" y="22.32" stroke="#000000" stroke-width="2" xlink:href="#i"/>
<use x="470.17581" y="207.344" stroke="#000000" xlink:href="#d"/>
<use x="470.17581" y="22.32" stroke="#000000" xlink:href="#c"/>
<use x="487.355368" y="207.344" stroke="#000000" xlink:href="#d"/>
<use x="487.355368" y="22.32" stroke="#000000" xlink:href="#c"/>
<use x="499.544459" y="207.344" stroke="#000000" xlink:href="#d"/>
<use x="499.544459" y="22.32" stroke="#000000" xlink:href="#c"/>
<use x="508.999052" y="207.344" stroke="#000000" xlink:href="#d"/>
<use x="508.999052" y="22.32" stroke="#000000" xlink:href="#c"/>
<use x="516.724017" y="207.344" stroke="#000000" xlink:href="#d"/>
<use x="516.724017" y="22.32" stroke="#000000" xlink:href="#c"/>
<use x="523.255382" y="207.344" stroke="#000000" xlink:href="#d"/>
<use x="523.255382" y="22.32" stroke="#000000" xlink:href="#c"/>
<use x="528.913108" y="207.344" stroke="#000000" xlink:href="#d"/>
<use x="528.913108" y="22.32" stroke="#000000" xlink:href="#c"/>
<use x="533.903575" y="207.344" stroke="#000000" xlink:href="#d"/>
<use x="533.903575" y="22.32" stroke="#000000" xlink:href="#c"/>
<use x="567.73635" y="207.344" stroke="#000000" xlink:href="#d"/>
<use x="567.73635" y="22.32" stroke="#000000" xlink:href="#c"/>
<use x="584.915908" y="207.344" stroke="#000000" xlink:href="#d"/>
<use x="584.915908" y="22.32" stroke="#000000" xlink:href="#c"/>
<use x="597.104999" y="207.344" stroke="#000000" xlink:href="#d"/>
<use x="597.104999" y="22.32" stroke="#000000" xlink:href="#c"/>
<use x="606.559592" y="207.344" stroke="#000000" xlink:href="#d"/>
<use x="606.559592" y="22.32" stroke="#000000" xlink:href="#c"/>
<use x="614.284557" y="207.344" stroke="#000000" xlink:href="#d"/>
<use x="614.284557" y="22.32" stroke="#000000" xlink:href="#c"/>
<use x="620.815922" y="207.344" stroke="#000000" xlink:href="#d"/>
<use x="620.815922" y="22.32" stroke="#000000" xlink:href="#c"/>
<use x="626.473648" y="207.344" stroke="#000000" xlink:href="#d"/>
<use x="626.473648" y="22.32" stroke="#000000" xlink:href="#c"/>
<use x="631.464115" y="207.344" stroke="#000000" xlink:href="#d"/>
<use x="631.464115" y="22.32" stroke="#000000" xlink:href="#c"/>
<use x="440.807161" y="179.82175" stroke="#000000" stroke-width="2" xlink:href="#f"/>
<use x="635.928241" y="179.82175" stroke="#000000" stroke-width="2" xlink:href="#e"/>
<use x="440.807161" y="140.446313" stroke="#000000" stroke-width="2" xlink:href="#f"/>
<use x="635.928241" y="140.446313" stroke="#000000" stroke-width="2" xlink:href="#e"/>
<use x="440.807161" y="101.070875" stroke="#000000" stroke-width="2" xlink:href="#f"/>
<use x="635.928241" y="101.070875" stroke="#000000" stroke-width="2" xlink:href="#e"/>
<use x="440.807161" y="61.695438" stroke="#000000" stroke-width="2" xlink:href="#f"/>
<use x="635.928241" y="61.695438" stroke="#000000" stroke-width="2" xlink:href="#e"/>
<use x="440.807161" y="22.32" stroke="#000000" stroke-width="2" xlink:href="#f"/>
<use x="635.928241" y="22.32" stroke="#000000" stroke-width="2" xlink:href="#e"/>
<use x="440.807161" y="207.344" stroke="#000000" xlink:href="#a"/>
<use x="635.928241" y="207.344" stroke="#000000" xlink:href="#b"/>
<use x="440.807161" y="200.41033" stroke="#000000" xlink:href="#a"/>
<use x="635.928241" y="200.41033" stroke="#000000" xlink:href="#b"/>
<use x="440.807161" y="195.490812" stroke="#000000" xlink:href="#a"/>
<use x="635.928241" y="195.490812" stroke="#000000" xlink:href="#b"/>
<use x="440.807161" y="191.674938" stroke="#000000" xlink:href="#a"/>
<use x="635.928241" y="191.674938" stroke="#000000" xlink:href="#b"/>
<use x="440.807161" y="188.557142" stroke="#000000" xlink:href="#a"/>
<use x="635.928241" y="188.557142" stroke="#000000" xlink:href="#b"/>
<use x="440.807161" y="185.921083" stroke="#000000" xlink:href="#a"/>
<use x="635.928241" y="185.921083" stroke="#000000" xlink:href="#b"/>
<use x="440.807161" y="183.637624" stroke="#000000" xlink:href="#a"/>
<use x="635.928241" y="183.637624" stroke="#000000" xlink:href="#b"/>
<use x="440.807161" y="181.623471" stroke="#000000" xlink:href="#a"/>
<use x="635.928241" y="181.623471" stroke="#000000" xlink:href="#b"/>
<use x="440.807161" y="167.968562" stroke="#000000" xlink:href="#a"/>
<use x="635.928241" y="167.968562" stroke="#000000" xlink:href="#b"/>
<use x="440.807161" y="161.034892" stroke="#000000" xlink:href="#a"/>
<use x="635.928241" y="161.034892" stroke="#000000" xlink:href="#b"/>
<use x="440.807161" y="156.115375" stroke="#000000" xlink:href="#a"/>
<use x="635.928241" y="156.115375" stroke="#000000" xlink:href="#b"/>
<use x="440.807161" y="152.2995" stroke="#000000" xlink:href="#a"/>
<use x="635.928241" y="152.2995" stroke="#000000" xlink:href="#b"/>
<use x="440.807161" y="149.181704" stroke="#000000" xlink:href="#a"/>
<use x="635.928241" y="149.181704" stroke="#000000" xlink:href="#b"/>
<use x="440.807161" y="146.545645" stroke="#000000" xlink:href="#a"/>
<use x="635.928241" y="146.545645" stroke="#000000" xlink:href="#b"/>
<use x="440.807161" y="144.262187" stroke="#000000" xlink:href="#a"/>
<use x="635.928241" y="144.262187" stroke="#000000" xlink:href="#b"/>
<use x="440.807161" y="142.248034" stroke="#000000" xlink:href="#a"/>
<use x="635.928241" y="142.248034" stroke="#000000" xlink:href="#b"/>
<use x="440.807161" y="128.593125" stroke="#000000" xlink:href="#a"/>
<use x="635.928241" y="128.593125" stroke="#000000" xlink:href="#b"/>
<use x="440.807161" y="121.659455" stroke="#000000" xlink:href="#a"/>
<use x="635.928241" y="121.659455" stroke="#000000" xlink:href="#b"/>
<use x="440.807161" y="116.739937" stroke="#000000" xlink:href="#a"/>
<use x="635.928241" y="116.739937" stroke="#000000" xlink:href="#b"/>
<use x="440.807161" y="112.924063" stroke="#000000" xlink:href="#a"/>
<use x="635.928241" y="112.924063" stroke="#000000" xlink:href="#b"/>
<use x="440.807161" y="109.806267" stroke="#000000" xlink:href="#a"/>
<use x="635.928241" y="109.806267" stroke="#000000" xlink:href="#b"/>
<use x="440.807161" y="107.170208" stroke="#000000" xlink:href="#a"/>
<use x="635.928241" y="107.170208" stroke="#000000" xlink:href="#b"/>
<use x="440.807161" y="104.886749" stroke="#000000" xlink:href="#a"/>
<use x="635.928241" y="104.886749" stroke="#000000" xlink:href="#b"/>
<use x="440.807161" y="102.872596" stroke="#000000" xlink:href="#a"/>
<use x="635.928241" y="102.872596" stroke="#000000" xlink:href="#b"/>
<use x="440.807161" y="89.217687" stroke="#000000" xlink:href="#a"/>
<use x="635.928241" y="89.217687" stroke="#000000" xlink:href="#b"/>
<use x="440.807161" y="82.284017" stroke="#000000" xlink:href="#a"/>
<use x="635.928241" y="82.284017" stroke="#000000" xlink:href="#b"/>
<use x="440.807161" y="77.3645" stroke="#000000" xlink:href="#a"/>
<use x="635.928241" y="77.3645" stroke="#000000" xlink:href="#b"/>
<use x="440.807161" y="73.548625" stroke="#000000" xlink:href="#a"/>
<use x="635.928241" y="73.548625" stroke="#000000" xlink:href="#b"/>
<use x="440.807161" y="70.430829" stroke="#000000" xlink:href="#a"/>
<use x="635.928241" y="70.430829" stroke="#000000" xlink:href="#b"/>
<use x="440.807161" y="67.79477" stroke="#000000" xlink:href="#a"/>
<use x="635.928241" y="67.79477" stroke="#000000" xlink:href="#b"/>
<use x="440.807161" y="65.511312" stroke="#000000" xlink:href="#a"/>
<use x="635.928241" y="65.511312" stroke="#000000" xlink:href="#b"/>
<use x="440.807161" y="63.497159" stroke="#000000" xlink:href="#a"/>
<use x="635.928241" y="63.497159" stroke="#000000" xlink:href="#b"/>
<use x="440.807161" y="49.84225" stroke="#000000" xlink:href="#a"/>
<use x="635.928241" y="49.84225" stroke="#000000" xlink:href="#b"/>
<use x="440.807161" y="42.908579" stroke="#000000" xlink:href="#a"/>
<use x="635.928241" y="42.908579" stroke="#000000" xlink:href="#b"/>
<use x="440.807161" y="37.989062" stroke="#000000" xlink:href="#a"/>
<use x="635.928241" y="37.989062" stroke="#000000" xlink:href="#b"/>
<use x="440.807161" y="34.173188" stroke="#000000" xlink:href="#a"/>
<use x="635.928241" y="34.173188" stroke="#000000" xlink:href="#b"/>
<use x="440.807161" y="31.055392" stroke="#000000" xlink:href="#a"/>
<use x="635.928241" y="31.055392" stroke="#000000" xlink:href="#b"/>
<use x="440.807161" y="28.419332" stroke="#000000" xlink:href="#a"/>
<use x="635.928241" y="28.419332" stroke="#000000" xlink:href="#b"/>
<use x="440.807161" y="26.135874" stroke="#000000" xlink:href="#a"/>
<use x="635.928241" y="26.135874" stroke="#000000" xlink:href="#b"/>
<use x="440.807161" y="24.121721" stroke="#000000" xlink:href="#a"/>
<use x="635.928241" y="24.121721" stroke="#000000" xlink:href="#b"/>
<path d="m440.81 67.022 6.7283-4.0335 6.7283 0.52961 6.7283 0.7104 6.7283 0.95901 6.7283-0.22975 6.7283 1.1481 6.7283 1.874 6.7283-0.12685 6.7283 2.9726 6.7283 2.7335 6.7283 3.8673 6.7283 3.9313 6.7283 5.7216 6.7283 4.9737 6.7283 5.6945 6.7283 5.9396 6.7283 6.1401 6.7283 5.9856 6.7283 6.3975 6.7283 7.931 6.7283 7.4905 6.7283 6.9445 6.7283 6.7765 6.7283 6.0451 6.7283 5.1844 6.7283 5.828 6.7283 7.297 6.7283 6.0699 6.7283 5.546" clip-path="url(#ac)" fill="none" stroke="#2094b5" stroke-linecap="square" stroke-width="1.5"/>
<path d="m440.81 63.991 6.7283 19.872 6.7283 1.9975 6.7283 3.6294 6.7283 0.59569 6.7283-0.50295 6.7283 0.057233 6.7283 2.4691 6.7283 0.77405 6.7283-0.58201 6.7283 1.6101 6.7283 1.5966 6.7283 2.2083 6.7283 2.8273 6.7283 3.0969 6.7283 3.7463 6.7283 4.0649 6.7283 5.2443 6.7283 5.9729 6.7283 5.7441 6.7283 6.1748 6.7283 5.0378 6.7283 5.4727 6.7283 4.953 6.7283 6.1268 6.7283 6.4722 6.7283 5.7171 6.7283 6.0904 6.7283 5.6879 6.7283 5.7404" clip-path="url(#ac)" fill="none" stroke="#8a2be2" stroke-linecap="square" stroke-width="1.5"/>
<path d="m440.81 78.694 6.7283 2.2105 6.7283-0.45596 6.7283-0.46207 6.7283 2.6221 6.7283 1.1617 6.7283 0.78642 6.7283 1.1091 6.7283 1.3734 6.7283 0.87114 6.7283 3.1597 6.7283 2.0367 6.7283 3.6321 6.7283 3.1545 6.7283 4.1261 6.7283 4.4785 6.7283 4.4213 6.7283 5.1247 6.7283 5.4171 6.7283 5.6531 6.7283 5.8353 6.7283 5.9599 6.7283 6.2308 6.7283 6.0723 6.7283 5.28 6.7283 5.2202 6.7283 5.1178 6.7283 5.747 6.7283 4.8378 6.7283 4.9442" clip-path="url(#ac)" fill="none" stroke="#d20f39" stroke-linecap="square" stroke-width="1.5"/>
<path d="m440.81 207.34v-185.02" fill="none" stroke="#000" stroke-linecap="square" stroke-width="2"/>
<path d="m635.93 207.34v-185.02" fill="none" stroke="#000" stroke-linecap="square" stroke-width="2"/>
<path d="m440.81 207.34h195.12" fill="none" stroke="#000" stroke-linecap="square" stroke-width="2"/>
<path d="m440.81 22.32h195.12" fill="none" stroke="#000" stroke-linecap="square" stroke-width="2"/>
<g transform="translate(457.55 16.32) scale(.12 -.12)">
<use transform="translate(0 .015625)" xlink:href="#h"/>
<use transform="translate(63.623 .015625)" xlink:href="#g"/>
<use transform="translate(127.25 .015625)" xlink:href="#n"/>
<use transform="translate(159.03 .015625)" xlink:href="#g"/>
<use transform="translate(242.14 .015625)" xlink:href="#aa"/>
<use transform="translate(345.41 .015625)" xlink:href="#w"/>
<use transform="translate(373.19 .015625)" xlink:href="#v"/>
<use transform="translate(434.38 .015625)" xlink:href="#y"/>
<use transform="translate(498.81 -16.391) scale(.7)" xlink:href="#h"/>
<use transform="translate(543.34 -16.391) scale(.7)" xlink:href="#g"/>
<use transform="translate(606.85 .015625)" xlink:href="#u"/>
<use transform="translate(693.13 -16.391) scale(.7)" xlink:href="#m"/>
<use transform="translate(774.85 .015625)" xlink:href="#p"/>
<use transform="translate(813.87 .015625)" xlink:href="#q"/>
<use transform="translate(901.1 -16.391) scale(.7)" xlink:href="#t"/>
<use transform="translate(962.49 .015625)" xlink:href="#o"/>
<use transform="translate(1021 .015625)" xlink:href="#al"/>
<use transform="translate(1124.3 .015625)" xlink:href="#h"/>
<use transform="translate(1187.9 .015625)" xlink:href="#g"/>
<use transform="translate(1251.5 .015625)" xlink:href="#n"/>
<use transform="translate(1283.3 .015625)" xlink:href="#r"/>
</g>
<path d="m635.93 207.34h195.12v-185.02h-195.12z" fill="#fff"/>
<use x="733.488781" y="207.344" stroke="#000000" stroke-width="2" xlink:href="#j"/>
<use x="733.488781" y="22.32" stroke="#000000" stroke-width="2" xlink:href="#i"/>
<use x="831.049321" y="207.344" stroke="#000000" stroke-width="2" xlink:href="#j"/>
<use x="831.049321" y="22.32" stroke="#000000" stroke-width="2" xlink:href="#i"/>
<use x="665.29689" y="207.344" stroke="#000000" xlink:href="#d"/>
<use x="665.29689" y="22.32" stroke="#000000" xlink:href="#c"/>
<use x="682.476448" y="207.344" stroke="#000000" xlink:href="#d"/>
<use x="682.476448" y="22.32" stroke="#000000" xlink:href="#c"/>
<use x="694.665539" y="207.344" stroke="#000000" xlink:href="#d"/>
<use x="694.665539" y="22.32" stroke="#000000" xlink:href="#c"/>
<use x="704.120132" y="207.344" stroke="#000000" xlink:href="#d"/>
<use x="704.120132" y="22.32" stroke="#000000" xlink:href="#c"/>
<use x="711.845097" y="207.344" stroke="#000000" xlink:href="#d"/>
<use x="711.845097" y="22.32" stroke="#000000" xlink:href="#c"/>
<use x="718.376462" y="207.344" stroke="#000000" xlink:href="#d"/>
<use x="718.376462" y="22.32" stroke="#000000" xlink:href="#c"/>
<use x="724.034188" y="207.344" stroke="#000000" xlink:href="#d"/>
<use x="724.034188" y="22.32" stroke="#000000" xlink:href="#c"/>
<use x="729.024656" y="207.344" stroke="#000000" xlink:href="#d"/>
<use x="729.024656" y="22.32" stroke="#000000" xlink:href="#c"/>
<use x="762.85743" y="207.344" stroke="#000000" xlink:href="#d"/>
<use x="762.85743" y="22.32" stroke="#000000" xlink:href="#c"/>
<use x="780.036988" y="207.344" stroke="#000000" xlink:href="#d"/>
<use x="780.036988" y="22.32" stroke="#000000" xlink:href="#c"/>
<use x="792.226079" y="207.344" stroke="#000000" xlink:href="#d"/>
<use x="792.226079" y="22.32" stroke="#000000" xlink:href="#c"/>
<use x="801.680672" y="207.344" stroke="#000000" xlink:href="#d"/>
<use x="801.680672" y="22.32" stroke="#000000" xlink:href="#c"/>
<use x="809.405637" y="207.344" stroke="#000000" xlink:href="#d"/>
<use x="809.405637" y="22.32" stroke="#000000" xlink:href="#c"/>
<use x="815.937002" y="207.344" stroke="#000000" xlink:href="#d"/>
<use x="815.937002" y="22.32" stroke="#000000" xlink:href="#c"/>
<use x="821.594728" y="207.344" stroke="#000000" xlink:href="#d"/>
<use x="821.594728" y="22.32" stroke="#000000" xlink:href="#c"/>
<use x="826.585196" y="207.344" stroke="#000000" xlink:href="#d"/>
<use x="826.585196" y="22.32" stroke="#000000" xlink:href="#c"/>
<use x="635.928241" y="179.82175" stroke="#000000" stroke-width="2" xlink:href="#f"/>
<use x="831.049321" y="179.82175" stroke="#000000" stroke-width="2" xlink:href="#e"/>
<use x="635.928241" y="140.446313" stroke="#000000" stroke-width="2" xlink:href="#f"/>
<use x="831.049321" y="140.446313" stroke="#000000" stroke-width="2" xlink:href="#e"/>
<use x="635.928241" y="101.070875" stroke="#000000" stroke-width="2" xlink:href="#f"/>
<use x="831.049321" y="101.070875" stroke="#000000" stroke-width="2" xlink:href="#e"/>
<use x="635.928241" y="61.695438" stroke="#000000" stroke-width="2" xlink:href="#f"/>
<use x="831.049321" y="61.695438" stroke="#000000" stroke-width="2" xlink:href="#e"/>
<use x="635.928241" y="22.32" stroke="#000000" stroke-width="2" xlink:href="#f"/>
<use x="831.049321" y="22.32" stroke="#000000" stroke-width="2" xlink:href="#e"/>
<use x="635.928241" y="207.344" stroke="#000000" xlink:href="#a"/>
<use x="831.049321" y="207.344" stroke="#000000" xlink:href="#b"/>
<use x="635.928241" y="200.41033" stroke="#000000" xlink:href="#a"/>
<use x="831.049321" y="200.41033" stroke="#000000" xlink:href="#b"/>
<use x="635.928241" y="195.490812" stroke="#000000" xlink:href="#a"/>
<use x="831.049321" y="195.490812" stroke="#000000" xlink:href="#b"/>
<use x="635.928241" y="191.674938" stroke="#000000" xlink:href="#a"/>
<use x="831.049321" y="191.674938" stroke="#000000" xlink:href="#b"/>
<use x="635.928241" y="188.557142" stroke="#000000" xlink:href="#a"/>
<use x="831.049321" y="188.557142" stroke="#000000" xlink:href="#b"/>
<use x="635.928241" y="185.921083" stroke="#000000" xlink:href="#a"/>
<use x="831.049321" y="185.921083" stroke="#000000" xlink:href="#b"/>
<use x="635.928241" y="183.637624" stroke="#000000" xlink:href="#a"/>
<use x="831.049321" y="183.637624" stroke="#000000" xlink:href="#b"/>
<use x="635.928241" y="181.623471" stroke="#000000" xlink:href="#a"/>
<use x="831.049321" y="181.623471" stroke="#000000" xlink:href="#b"/>
<use x="635.928241" y="167.968562" stroke="#000000" xlink:href="#a"/>
<use x="831.049321" y="167.968562" stroke="#000000" xlink:href="#b"/>
<use x="635.928241" y="161.034892" stroke="#000000" xlink:href="#a"/>
<use x="831.049321" y="161.034892" stroke="#000000" xlink:href="#b"/>
<use x="635.928241" y="156.115375" stroke="#000000" xlink:href="#a"/>
<use x="831.049321" y="156.115375" stroke="#000000" xlink:href="#b"/>
<use x="635.928241" y="152.2995" stroke="#000000" xlink:href="#a"/>
<use x="831.049321" y="152.2995" stroke="#000000" xlink:href="#b"/>
<use x="635.928241" y="149.181704" stroke="#000000" xlink:href="#a"/>
<use x="831.049321" y="149.181704" stroke="#000000" xlink:href="#b"/>
<use x="635.928241" y="146.545645" stroke="#000000" xlink:href="#a"/>
<use x="831.049321" y="146.545645" stroke="#000000" xlink:href="#b"/>
<use x="635.928241" y="144.262187" stroke="#000000" xlink:href="#a"/>
<use x="831.049321" y="144.262187" stroke="#000000" xlink:href="#b"/>
<use x="635.928241" y="142.248034" stroke="#000000" xlink:href="#a"/>
<use x="831.049321" y="142.248034" stroke="#000000" xlink:href="#b"/>
<use x="635.928241" y="128.593125" stroke="#000000" xlink:href="#a"/>
<use x="831.049321" y="128.593125" stroke="#000000" xlink:href="#b"/>
<use x="635.928241" y="121.659455" stroke="#000000" xlink:href="#a"/>
<use x="831.049321" y="121.659455" stroke="#000000" xlink:href="#b"/>
<use x="635.928241" y="116.739937" stroke="#000000" xlink:href="#a"/>
<use x="831.049321" y="116.739937" stroke="#000000" xlink:href="#b"/>
<use x="635.928241" y="112.924063" stroke="#000000" xlink:href="#a"/>
<use x="831.049321" y="112.924063" stroke="#000000" xlink:href="#b"/>
<use x="635.928241" y="109.806267" stroke="#000000" xlink:href="#a"/>
<use x="831.049321" y="109.806267" stroke="#000000" xlink:href="#b"/>
<use x="635.928241" y="107.170208" stroke="#000000" xlink:href="#a"/>
<use x="831.049321" y="107.170208" stroke="#000000" xlink:href="#b"/>
<use x="635.928241" y="104.886749" stroke="#000000" xlink:href="#a"/>
<use x="831.049321" y="104.886749" stroke="#000000" xlink:href="#b"/>
<use x="635.928241" y="102.872596" stroke="#000000" xlink:href="#a"/>
<use x="831.049321" y="102.872596" stroke="#000000" xlink:href="#b"/>
<use x="635.928241" y="89.217687" stroke="#000000" xlink:href="#a"/>
<use x="831.049321" y="89.217687" stroke="#000000" xlink:href="#b"/>
<use x="635.928241" y="82.284017" stroke="#000000" xlink:href="#a"/>
<use x="831.049321" y="82.284017" stroke="#000000" xlink:href="#b"/>
<use x="635.928241" y="77.3645" stroke="#000000" xlink:href="#a"/>
<use x="831.049321" y="77.3645" stroke="#000000" xlink:href="#b"/>
<use x="635.928241" y="73.548625" stroke="#000000" xlink:href="#a"/>
<use x="831.049321" y="73.548625" stroke="#000000" xlink:href="#b"/>
<use x="635.928241" y="70.430829" stroke="#000000" xlink:href="#a"/>
<use x="831.049321" y="70.430829" stroke="#000000" xlink:href="#b"/>
<use x="635.928241" y="67.79477" stroke="#000000" xlink:href="#a"/>
<use x="831.049321" y="67.79477" stroke="#000000" xlink:href="#b"/>
<use x="635.928241" y="65.511312" stroke="#000000" xlink:href="#a"/>
<use x="831.049321" y="65.511312" stroke="#000000" xlink:href="#b"/>
<use x="635.928241" y="63.497159" stroke="#000000" xlink:href="#a"/>
<use x="831.049321" y="63.497159" stroke="#000000" xlink:href="#b"/>
<use x="635.928241" y="49.84225" stroke="#000000" xlink:href="#a"/>
<use x="831.049321" y="49.84225" stroke="#000000" xlink:href="#b"/>
<use x="635.928241" y="42.908579" stroke="#000000" xlink:href="#a"/>
<use x="831.049321" y="42.908579" stroke="#000000" xlink:href="#b"/>
<use x="635.928241" y="37.989062" stroke="#000000" xlink:href="#a"/>
<use x="831.049321" y="37.989062" stroke="#000000" xlink:href="#b"/>
<use x="635.928241" y="34.173188" stroke="#000000" xlink:href="#a"/>
<use x="831.049321" y="34.173188" stroke="#000000" xlink:href="#b"/>
<use x="635.928241" y="31.055392" stroke="#000000" xlink:href="#a"/>
<use x="831.049321" y="31.055392" stroke="#000000" xlink:href="#b"/>
<use x="635.928241" y="28.419332" stroke="#000000" xlink:href="#a"/>
<use x="831.049321" y="28.419332" stroke="#000000" xlink:href="#b"/>
<use x="635.928241" y="26.135874" stroke="#000000" xlink:href="#a"/>
<use x="831.049321" y="26.135874" stroke="#000000" xlink:href="#b"/>
<use x="635.928241" y="24.121721" stroke="#000000" xlink:href="#a"/>
<use x="831.049321" y="24.121721" stroke="#000000" xlink:href="#b"/>
<path d="m635.93 67.089 6.7283-0.33696 6.7283 0.32426 6.7283 1.432 6.7283 0.18612 6.7283 0.35236 6.7283 2.8361 6.7283 0.96861 6.7283 1.7021 6.7283 3.2915 6.7283 3.8486 6.7283 3.7574 6.7283 4.4921 6.7283 4.1913 6.7283 4.5523 6.7283 3.5965 6.7283 3.5344 6.7283 4.6949 6.7283 6.4978 6.7283 7.6028 6.7283 7.8982 6.7283 6.9438 6.7283 6.7177 6.7283 5.3519 6.7283 4.9204 6.7283 5.0632 6.7283 5.7921 6.7283 4.0057 6.7283 6.0306 6.7283 4.7938" clip-path="url(#af)" fill="none" stroke="#2094b5" stroke-linecap="square" stroke-width="1.5"/>
<path d="m635.93 87.818 6.7283 4.167 6.7283 0.44827 6.7283 0.32599 6.7283 2.0333 6.7283-5.3306 6.7283 4.5322 6.7283-1.2753 6.7283 1.1867 6.7283 1.449 6.7283 1.5856 6.7283 1.3164 6.7283 1.6522 6.7283 2.8208 6.7283 2.6625 6.7283 3.6141 6.7283 4.2872 6.7283 4.5911 6.7283 4.9956 6.7283 5.4356 6.7283 5.4734 6.7283 5.5534 6.7283 5.5301 6.7283 5.9605 6.7283 6.0107 6.7283 5.6016 6.7283 5.863 6.7283 5.8421 6.7283 6.0895 6.7283 6.3674" clip-path="url(#af)" fill="none" stroke="#8a2be2" stroke-linecap="square" stroke-width="1.5"/>
<path d="m635.93 78.838 6.7283 2.0345 6.7283 3.2723 6.7283 0.69606 6.7283-0.40637 6.7283-0.51343 6.7283 1.6482 6.7283 0.95561 6.7283 1.1372 6.7283 1.4585 6.7283 1.829 6.7283 2.2055 6.7283 2.9594 6.7283 3.3722 6.7283 3.5437 6.7283 4.6612 6.7283 4.7679 6.7283 4.7043 6.7283 5.2885 6.7283 5.4161 6.7283 5.088 6.7283 5.7773 6.7283 5.4975 6.7283 5.0212 6.7283 4.8926 6.7283 5.3688 6.7283 5.6461 6.7283 5.2611 6.7283 5.12 6.7283 5.5386" clip-path="url(#af)" fill="none" stroke="#d20f39" stroke-linecap="square" stroke-width="1.5"/>
<path d="m635.93 207.34v-185.02" fill="none" stroke="#000" stroke-linecap="square" stroke-width="2"/>
<path d="m831.05 207.34v-185.02" fill="none" stroke="#000" stroke-linecap="square" stroke-width="2"/>
<path d="m635.93 207.34h195.12" fill="none" stroke="#000" stroke-linecap="square" stroke-width="2"/>
<path d="m635.93 22.32h195.12" fill="none" stroke="#000" stroke-linecap="square" stroke-width="2"/>
<g transform="translate(673.37 16.32) scale(.12 -.12)">
<use transform="translate(0 .015625)" xlink:href="#h"/>
<use transform="translate(63.623 .015625)" xlink:href="#g"/>
<use transform="translate(127.25 .015625)" xlink:href="#n"/>
<use transform="translate(159.03 .015625)" xlink:href="#r"/>
<use transform="translate(242.14 .015625)" xlink:href="#aa"/>
<use transform="translate(345.41 .015625)" xlink:href="#w"/>
<use transform="translate(373.19 .015625)" xlink:href="#v"/>
<use transform="translate(434.38 .015625)" xlink:href="#y"/>
<use transform="translate(498.81 -16.391) scale(.7)" xlink:href="#h"/>
<use transform="translate(543.34 -16.391) scale(.7)" xlink:href="#g"/>
<use transform="translate(606.85 .015625)" xlink:href="#u"/>
<use transform="translate(693.13 -16.391) scale(.7)" xlink:href="#m"/>
<use transform="translate(774.85 .015625)" xlink:href="#p"/>
<use transform="translate(813.87 .015625)" xlink:href="#q"/>
<use transform="translate(901.1 -16.391) scale(.7)" xlink:href="#t"/>
<use transform="translate(962.49 .015625)" xlink:href="#o"/>
</g>
<path d="m50.565 299.86h195.12v-92.512h-195.12z" fill="#fff"/>
<use x="50.565" y="299.856" stroke="#000000" stroke-width="2" xlink:href="#j"/>
<use x="50.565" y="207.344" stroke="#000000" stroke-width="2" xlink:href="#i"/>
<g transform="translate(36.465 313.97) scale(.12 -.12)">
<use transform="translate(0 .68438)" xlink:href="#h"/>
<use transform="translate(63.623 .68438)" xlink:href="#g"/>
<use transform="translate(128.2 38.966) scale(.7)" xlink:href="#am"/>
<use transform="translate(186.86 38.966) scale(.7)" xlink:href="#h"/>
</g>
<use x="148.12554" y="299.856" stroke="#000000" stroke-width="2" xlink:href="#j"/>
<use x="148.12554" y="207.344" stroke="#000000" stroke-width="2" xlink:href="#i"/>
<g transform="translate(137.57 313.97) scale(.12 -.12)">
<use transform="translate(0 .76562)" xlink:href="#h"/>
<use transform="translate(63.623 .76562)" xlink:href="#g"/>
<use transform="translate(128.2 39.047) scale(.7)" xlink:href="#g"/>
</g>
<use x="245.68608" y="299.856" stroke="#000000" stroke-width="2" xlink:href="#j"/>
<use x="245.68608" y="207.344" stroke="#000000" stroke-width="2" xlink:href="#i"/>
<g transform="translate(235.13 313.97) scale(.12 -.12)">
<use transform="translate(0 .68438)" xlink:href="#h"/>
<use transform="translate(63.623 .68438)" xlink:href="#g"/>
<use transform="translate(128.2 38.966) scale(.7)" xlink:href="#h"/>
</g>
<use x="79.933649" y="299.856" stroke="#000000" xlink:href="#d"/>
<use x="79.933649" y="207.344" stroke="#000000" xlink:href="#c"/>
<use x="97.113207" y="299.856" stroke="#000000" xlink:href="#d"/>
<use x="97.113207" y="207.344" stroke="#000000" xlink:href="#c"/>
<use x="109.302298" y="299.856" stroke="#000000" xlink:href="#d"/>
<use x="109.302298" y="207.344" stroke="#000000" xlink:href="#c"/>
<use x="118.756891" y="299.856" stroke="#000000" xlink:href="#d"/>
<use x="118.756891" y="207.344" stroke="#000000" xlink:href="#c"/>
<use x="126.481856" y="299.856" stroke="#000000" xlink:href="#d"/>
<use x="126.481856" y="207.344" stroke="#000000" xlink:href="#c"/>
<use x="133.013221" y="299.856" stroke="#000000" xlink:href="#d"/>
<use x="133.013221" y="207.344" stroke="#000000" xlink:href="#c"/>
<use x="138.670947" y="299.856" stroke="#000000" xlink:href="#d"/>
<use x="138.670947" y="207.344" stroke="#000000" xlink:href="#c"/>
<use x="143.661415" y="299.856" stroke="#000000" xlink:href="#d"/>
<use x="143.661415" y="207.344" stroke="#000000" xlink:href="#c"/>
<use x="177.494189" y="299.856" stroke="#000000" xlink:href="#d"/>
<use x="177.494189" y="207.344" stroke="#000000" xlink:href="#c"/>
<use x="194.673747" y="299.856" stroke="#000000" xlink:href="#d"/>
<use x="194.673747" y="207.344" stroke="#000000" xlink:href="#c"/>
<use x="206.862838" y="299.856" stroke="#000000" xlink:href="#d"/>
<use x="206.862838" y="207.344" stroke="#000000" xlink:href="#c"/>
<use x="216.317431" y="299.856" stroke="#000000" xlink:href="#d"/>
<use x="216.317431" y="207.344" stroke="#000000" xlink:href="#c"/>
<use x="224.042396" y="299.856" stroke="#000000" xlink:href="#d"/>
<use x="224.042396" y="207.344" stroke="#000000" xlink:href="#c"/>
<use x="230.573761" y="299.856" stroke="#000000" xlink:href="#d"/>
<use x="230.573761" y="207.344" stroke="#000000" xlink:href="#c"/>
<use x="236.231487" y="299.856" stroke="#000000" xlink:href="#d"/>
<use x="236.231487" y="207.344" stroke="#000000" xlink:href="#c"/>
<use x="241.221955" y="299.856" stroke="#000000" xlink:href="#d"/>
<use x="241.221955" y="207.344" stroke="#000000" xlink:href="#c"/>
<g transform="translate(130.61 329.32) scale(.12 -.12)">
<defs>
<path id="k" transform="scale(.015625)" d="m2853 2969q-87 47-200 72-112 25-240 25-460 0-804-349-343-348-456-933l-353-1784h-575l684 3500h575l-109-544q228 303 545 465 318 163 677 163 94 0 184-11 91-10 182-35l-110-569z"/>
<path id="l" transform="scale(.015625)" d="m1625 4666h531l-1625-5260h-531l1625 5260z"/>
<path id="s" transform="scale(.015625)" d="m1228 531h2203v-531h-2962v531q359 372 979 998 621 627 780 809 303 340 423 576 121 236 121 464 0 372-261 606-261 235-680 235-297 0-627-103-329-103-704-313v638q381 153 712 231 332 78 607 78 725 0 1156-363 431-362 431-968 0-288-108-546-107-257-392-607-78-91-497-524-418-433-1181-1211z"/>
</defs>
<use transform="translate(0 .09375)" xlink:href="#k"/>
<use transform="translate(41.113 .09375)" xlink:href="#l"/>
<use transform="translate(74.805 .09375)" xlink:href="#k"/>
<use transform="translate(115.92 -16.312) scale(.7)" xlink:href="#m"/>
<use transform="translate(178.67 -16.312) scale(.7)" xlink:href="#h"/>
<use transform="translate(223.21 -16.312) scale(.7)" xlink:href="#l"/>
<use transform="translate(244.25 -16.312) scale(.7)" xlink:href="#s"/>
</g>
<use x="50.565" y="299.856" stroke="#000000" stroke-width="2" xlink:href="#f"/>
<use x="245.68608" y="299.856" stroke="#000000" stroke-width="2" xlink:href="#e"/>
<g transform="translate(39.43 304.42) scale(.12 -.12)">
<use xlink:href="#g"/>
</g>
<use x="50.565" y="269.018667" stroke="#000000" stroke-width="2" xlink:href="#f"/>
<use x="245.68608" y="269.018667" stroke="#000000" stroke-width="2" xlink:href="#e"/>
<g transform="translate(24.16 273.58) scale(.12 -.12)">
<use xlink:href="#h"/>
<use transform="translate(63.623)" xlink:href="#g"/>
<use transform="translate(127.25)" xlink:href="#g"/>
</g>
<use x="50.565" y="238.181333" stroke="#000000" stroke-width="2" xlink:href="#f"/>
<use x="245.68608" y="238.181333" stroke="#000000" stroke-width="2" xlink:href="#e"/>
<g transform="translate(24.16 242.74) scale(.12 -.12)">
<use xlink:href="#s"/>
<use transform="translate(63.623)" xlink:href="#g"/>
<use transform="translate(127.25)" xlink:href="#g"/>
</g>
<use x="50.565" y="207.344" stroke="#000000" stroke-width="2" xlink:href="#f"/>
<use x="245.68608" y="207.344" stroke="#000000" stroke-width="2" xlink:href="#e"/>
<g transform="translate(24.16 211.9) scale(.12 -.12)">
<use xlink:href="#at"/>
<use transform="translate(63.623)" xlink:href="#g"/>
<use transform="translate(127.25)" xlink:href="#g"/>
</g>
<g transform="translate(17.664 290.32) rotate(-90) scale(.12 -.12)">
<defs>
<path id="aw" transform="scale(.015625)" d="m459 3500h610l512-2975 1675 2975h610l-1991-3500h-775l-641 3500z"/>
<path id="bc" transform="scale(.015625)" d="m2631 2963q-97 56-211 82-114 27-251 27-488 0-749-317t-261-911v-1844h-578v3500h578v-544q182 319 472 473 291 155 707 155 59 0 131-8 72-7 159-23l3-590z"/>
</defs>
<use transform="translate(0 .68438)" xlink:href="#aw"/>
<use transform="translate(59.18 -15.722) scale(.7)" xlink:href="#aj"/>
<use transform="translate(97.666 -15.722) scale(.7)" xlink:href="#x"/>
<use transform="translate(117.11 -15.722) scale(.7)" xlink:href="#bc"/>
<use transform="translate(145.89 -15.722) scale(.7)" xlink:href="#aj"/>
<use transform="translate(203.35 .68438)" xlink:href="#p"/>
<use transform="translate(242.36 .68438)" xlink:href="#aq"/>
<use transform="translate(300.27 .68438)" xlink:href="#ap"/>
<use transform="translate(413.92 .68438)" xlink:href="#an"/>
<use transform="translate(466.98 38.966) scale(.7)" xlink:href="#am"/>
<use transform="translate(525.63 38.966) scale(.7)" xlink:href="#h"/>
<use transform="translate(572.9 .68438)" xlink:href="#o"/>
</g>
<path d="m50.565 297.18 6.7283-0.64091 6.7283-0.93024 6.7283-1.1713 6.7283-1.2536 6.7283-1.5829 6.7283-2.1213 6.7283-2.0378 6.7283-2.1979 6.7283-2.4873 6.7283-2.839 6.7283-2.8863 6.7283-2.8629 6.7283-2.5874 6.7283-2.4248 6.7283-1.8748 6.7283-1.5222 6.7283-1.2338 6.7283-1.06 6.7283-0.80895 6.7283-0.24288 6.7283 0.20917 6.7283 0.57955 6.7283 0.71455 6.7283 0.70002 6.7283 0.74248 6.7283 0.80648 6.7283 0.8693 6.7283 0.7352 6.7283 0.66124" clip-path="url(#ah)" fill="none" stroke="#2094b5" stroke-linecap="square" stroke-width="1.5"/>
<path d="m50.565 297.54 6.7283-0.92305 6.7283-0.93248 6.7283-0.99106 6.7283-1.343 6.7283-1.5512 6.7283-1.5234 6.7283-1.4271 6.7283-1.8657 6.7283-2.0055 6.7283-2.1205 6.7283-2.1084 6.7283-1.9928 6.7283-1.8937 6.7283-1.9103 6.7283-1.6151 6.7283-1.3599 6.7283-1.0419 6.7283-0.67154 6.7283-0.34418 6.7283-0.16426 6.7283 0.036572 6.7283 0.17189 6.7283 0.25601 6.7283 0.30356 6.7283 0.29207 6.7283 0.25757 6.7283 0.26362 6.7283 0.23655 6.7283 0.14061" clip-path="url(#ah)" fill="none" stroke="#8a2be2" stroke-linecap="square" stroke-width="1.5"/>
<path d="m50.565 298.09 6.7283-0.71298 6.7283-0.66324 6.7283-1.0259 6.7283-1.1823 6.7283-1.2678 6.7283-1.1503 6.7283-1.5095 6.7283-1.5299 6.7283-1.6531 6.7283-1.891 6.7283-1.9292 6.7283-1.866 6.7283-1.8433 6.7283-1.7382 6.7283-1.5745 6.7283-1.3518 6.7283-1.1059 6.7283-0.7225 6.7283-0.42875 6.7283-0.14893 6.7283 0.02512 6.7283 0.15389 6.7283 0.30837 6.7283 0.35634 6.7283 0.34972 6.7283 0.31358 6.7283 0.24314 6.7283 0.21465 6.7283 0.12173" clip-path="url(#ah)" fill="none" stroke="#d20f39" stroke-linecap="square" stroke-width="1.5"/>
<path d="m50.565 299.86v-92.512" fill="none" stroke="#000" stroke-linecap="square" stroke-width="2"/>
<path d="m245.69 299.86v-92.512" fill="none" stroke="#000" stroke-linecap="square" stroke-width="2"/>
<path d="m50.565 299.86h195.12" fill="none" stroke="#000" stroke-linecap="square" stroke-width="2"/>
<path d="m50.565 207.34h195.12" fill="none" stroke="#000" stroke-linecap="square" stroke-width="2"/>
<path d="m245.69 299.86h195.12v-92.512h-195.12z" fill="#fff"/>
<use x="343.24662" y="299.856" stroke="#000000" stroke-width="2" xlink:href="#j"/>
<use x="343.24662" y="207.344" stroke="#000000" stroke-width="2" xlink:href="#i"/>
<g transform="translate(332.69 313.97) scale(.12 -.12)">
<use transform="translate(0 .76562)" xlink:href="#h"/>
<use transform="translate(63.623 .76562)" xlink:href="#g"/>
<use transform="translate(128.2 39.047) scale(.7)" xlink:href="#g"/>
</g>
<use x="440.807161" y="299.856" stroke="#000000" stroke-width="2" xlink:href="#j"/>
<use x="440.807161" y="207.344" stroke="#000000" stroke-width="2" xlink:href="#i"/>
<g transform="translate(430.25 313.97) scale(.12 -.12)">
<use transform="translate(0 .68438)" xlink:href="#h"/>
<use transform="translate(63.623 .68438)" xlink:href="#g"/>
<use transform="translate(128.2 38.966) scale(.7)" xlink:href="#h"/>
</g>
<use x="275.054729" y="299.856" stroke="#000000" xlink:href="#d"/>
<use x="275.054729" y="207.344" stroke="#000000" xlink:href="#c"/>
<use x="292.234288" y="299.856" stroke="#000000" xlink:href="#d"/>
<use x="292.234288" y="207.344" stroke="#000000" xlink:href="#c"/>
<use x="304.423378" y="299.856" stroke="#000000" xlink:href="#d"/>
<use x="304.423378" y="207.344" stroke="#000000" xlink:href="#c"/>
<use x="313.877972" y="299.856" stroke="#000000" xlink:href="#d"/>
<use x="313.877972" y="207.344" stroke="#000000" xlink:href="#c"/>
<use x="321.602937" y="299.856" stroke="#000000" xlink:href="#d"/>
<use x="321.602937" y="207.344" stroke="#000000" xlink:href="#c"/>
<use x="328.134302" y="299.856" stroke="#000000" xlink:href="#d"/>
<use x="328.134302" y="207.344" stroke="#000000" xlink:href="#c"/>
<use x="333.792027" y="299.856" stroke="#000000" xlink:href="#d"/>
<use x="333.792027" y="207.344" stroke="#000000" xlink:href="#c"/>
<use x="338.782495" y="299.856" stroke="#000000" xlink:href="#d"/>
<use x="338.782495" y="207.344" stroke="#000000" xlink:href="#c"/>
<use x="372.615269" y="299.856" stroke="#000000" xlink:href="#d"/>
<use x="372.615269" y="207.344" stroke="#000000" xlink:href="#c"/>
<use x="389.794828" y="299.856" stroke="#000000" xlink:href="#d"/>
<use x="389.794828" y="207.344" stroke="#000000" xlink:href="#c"/>
<use x="401.983918" y="299.856" stroke="#000000" xlink:href="#d"/>
<use x="401.983918" y="207.344" stroke="#000000" xlink:href="#c"/>
<use x="411.438512" y="299.856" stroke="#000000" xlink:href="#d"/>
<use x="411.438512" y="207.344" stroke="#000000" xlink:href="#c"/>
<use x="419.163477" y="299.856" stroke="#000000" xlink:href="#d"/>
<use x="419.163477" y="207.344" stroke="#000000" xlink:href="#c"/>
<use x="425.694842" y="299.856" stroke="#000000" xlink:href="#d"/>
<use x="425.694842" y="207.344" stroke="#000000" xlink:href="#c"/>
<use x="431.352567" y="299.856" stroke="#000000" xlink:href="#d"/>
<use x="431.352567" y="207.344" stroke="#000000" xlink:href="#c"/>
<use x="436.343035" y="299.856" stroke="#000000" xlink:href="#d"/>
<use x="436.343035" y="207.344" stroke="#000000" xlink:href="#c"/>
<g transform="translate(325.73 329.32) scale(.12 -.12)">
<use transform="translate(0 .09375)" xlink:href="#k"/>
<use transform="translate(41.113 .09375)" xlink:href="#l"/>
<use transform="translate(74.805 .09375)" xlink:href="#k"/>
<use transform="translate(115.92 -16.312) scale(.7)" xlink:href="#m"/>
<use transform="translate(178.67 -16.312) scale(.7)" xlink:href="#h"/>
<use transform="translate(223.21 -16.312) scale(.7)" xlink:href="#l"/>
<use transform="translate(244.25 -16.312) scale(.7)" xlink:href="#s"/>
</g>
<use x="245.68608" y="299.856" stroke="#000000" stroke-width="2" xlink:href="#f"/>
<use x="440.807161" y="299.856" stroke="#000000" stroke-width="2" xlink:href="#e"/>
<use x="245.68608" y="269.018667" stroke="#000000" stroke-width="2" xlink:href="#f"/>
<use x="440.807161" y="269.018667" stroke="#000000" stroke-width="2" xlink:href="#e"/>
<use x="245.68608" y="238.181333" stroke="#000000" stroke-width="2" xlink:href="#f"/>
<use x="440.807161" y="238.181333" stroke="#000000" stroke-width="2" xlink:href="#e"/>
<use x="245.68608" y="207.344" stroke="#000000" stroke-width="2" xlink:href="#f"/>
<use x="440.807161" y="207.344" stroke="#000000" stroke-width="2" xlink:href="#e"/>
<path d="m245.69 295.18 6.7283-1.216 6.7283-1.5394 6.7283-1.6516 6.7283-1.8824 6.7283-2.0815 6.7283-2.4851 6.7283-2.6193 6.7283-2.9743 6.7283-3.3031 6.7283-3.2168 6.7283-3.2454 6.7283-3.0083 6.7283-2.3085 6.7283-1.8149 6.7283-1.4317 6.7283-1.0824 6.7283-0.87338 6.7283-0.75947 6.7283-0.50208 6.7283-0.35076 6.7283-0.060469 6.7283 0.27385 6.7283 0.57007 6.7283 0.83889 6.7283 0.92239 6.7283 0.76589 6.7283 0.76109 6.7283 0.58332 6.7283 0.51108" clip-path="url(#ag)" fill="none" stroke="#2094b5" stroke-linecap="square" stroke-width="1.5"/>
<path d="m245.69 297.03 6.7283-0.82048 6.7283-1.1717 6.7283-1.0642 6.7283-1.4127 6.7283-1.2478 6.7283-1.4994 6.7283-1.7731 6.7283-2.0132 6.7283-2.0314 6.7283-2.2716 6.7283-2.4621 6.7283-2.5509 6.7283-2.6353 6.7283-2.5556 6.7283-2.3214 6.7283-2.0485 6.7283-1.6401 6.7283-1.2503 6.7283-0.88213 6.7283-0.62496 6.7283-0.34075 6.7283-0.080865 6.7283 0.067097 6.7283 0.20637 6.7283 0.29904 6.7283 0.41618 6.7283 0.36401 6.7283 0.3536 6.7283 0.3129" clip-path="url(#ag)" fill="none" stroke="#8a2be2" stroke-linecap="square" stroke-width="1.5"/>
<path d="m245.69 296.85 6.7283-0.92823 6.7283-0.91992 6.7283-1.1916 6.7283-1.2829 6.7283-1.2778 6.7283-1.5455 6.7283-1.8337 6.7283-1.866 6.7283-2.0277 6.7283-2.0926 6.7283-2.1836 6.7283-2.1511 6.7283-2.1063 6.7283-2.051 6.7283-1.7981 6.7283-1.6391 6.7283-1.3012 6.7283-1.0716 6.7283-0.86825 6.7283-0.54479 6.7283-0.30358 6.7283-0.15466 6.7283-0.03139 6.7283 0.098574 6.7283 0.15947 6.7283 0.25055 6.7283 0.2067 6.7283 0.20742 6.7283 0.19949" clip-path="url(#ag)" fill="none" stroke="#d20f39" stroke-linecap="square" stroke-width="1.5"/>
<path d="m245.69 299.86v-92.512" fill="none" stroke="#000" stroke-linecap="square" stroke-width="2"/>
<path d="m440.81 299.86v-92.512" fill="none" stroke="#000" stroke-linecap="square" stroke-width="2"/>
<path d="m245.69 299.86h195.12" fill="none" stroke="#000" stroke-linecap="square" stroke-width="2"/>
<path d="m245.69 207.34h195.12" fill="none" stroke="#000" stroke-linecap="square" stroke-width="2"/>
<path d="m440.81 299.86h195.12v-92.512h-195.12z" fill="#fff"/>
<use x="538.367701" y="299.856" stroke="#000000" stroke-width="2" xlink:href="#j"/>
<use x="538.367701" y="207.344" stroke="#000000" stroke-width="2" xlink:href="#i"/>
<g transform="translate(527.81 313.97) scale(.12 -.12)">
<use transform="translate(0 .76562)" xlink:href="#h"/>
<use transform="translate(63.623 .76562)" xlink:href="#g"/>
<use transform="translate(128.2 39.047) scale(.7)" xlink:href="#g"/>
</g>
<use x="635.928241" y="299.856" stroke="#000000" stroke-width="2" xlink:href="#j"/>
<use x="635.928241" y="207.344" stroke="#000000" stroke-width="2" xlink:href="#i"/>
<g transform="translate(625.37 313.97) scale(.12 -.12)">
<use transform="translate(0 .68438)" xlink:href="#h"/>
<use transform="translate(63.623 .68438)" xlink:href="#g"/>
<use transform="translate(128.2 38.966) scale(.7)" xlink:href="#h"/>
</g>
<use x="470.17581" y="299.856" stroke="#000000" xlink:href="#d"/>
<use x="470.17581" y="207.344" stroke="#000000" xlink:href="#c"/>
<use x="487.355368" y="299.856" stroke="#000000" xlink:href="#d"/>
<use x="487.355368" y="207.344" stroke="#000000" xlink:href="#c"/>
<use x="499.544459" y="299.856" stroke="#000000" xlink:href="#d"/>
<use x="499.544459" y="207.344" stroke="#000000" xlink:href="#c"/>
<use x="508.999052" y="299.856" stroke="#000000" xlink:href="#d"/>
<use x="508.999052" y="207.344" stroke="#000000" xlink:href="#c"/>
<use x="516.724017" y="299.856" stroke="#000000" xlink:href="#d"/>
<use x="516.724017" y="207.344" stroke="#000000" xlink:href="#c"/>
<use x="523.255382" y="299.856" stroke="#000000" xlink:href="#d"/>
<use x="523.255382" y="207.344" stroke="#000000" xlink:href="#c"/>
<use x="528.913108" y="299.856" stroke="#000000" xlink:href="#d"/>
<use x="528.913108" y="207.344" stroke="#000000" xlink:href="#c"/>
<use x="533.903575" y="299.856" stroke="#000000" xlink:href="#d"/>
<use x="533.903575" y="207.344" stroke="#000000" xlink:href="#c"/>
<use x="567.73635" y="299.856" stroke="#000000" xlink:href="#d"/>
<use x="567.73635" y="207.344" stroke="#000000" xlink:href="#c"/>
<use x="584.915908" y="299.856" stroke="#000000" xlink:href="#d"/>
<use x="584.915908" y="207.344" stroke="#000000" xlink:href="#c"/>
<use x="597.104999" y="299.856" stroke="#000000" xlink:href="#d"/>
<use x="597.104999" y="207.344" stroke="#000000" xlink:href="#c"/>
<use x="606.559592" y="299.856" stroke="#000000" xlink:href="#d"/>
<use x="606.559592" y="207.344" stroke="#000000" xlink:href="#c"/>
<use x="614.284557" y="299.856" stroke="#000000" xlink:href="#d"/>
<use x="614.284557" y="207.344" stroke="#000000" xlink:href="#c"/>
<use x="620.815922" y="299.856" stroke="#000000" xlink:href="#d"/>
<use x="620.815922" y="207.344" stroke="#000000" xlink:href="#c"/>
<use x="626.473648" y="299.856" stroke="#000000" xlink:href="#d"/>
<use x="626.473648" y="207.344" stroke="#000000" xlink:href="#c"/>
<use x="631.464115" y="299.856" stroke="#000000" xlink:href="#d"/>
<use x="631.464115" y="207.344" stroke="#000000" xlink:href="#c"/>
<g transform="translate(520.85 329.32) scale(.12 -.12)">
<use transform="translate(0 .09375)" xlink:href="#k"/>
<use transform="translate(41.113 .09375)" xlink:href="#l"/>
<use transform="translate(74.805 .09375)" xlink:href="#k"/>
<use transform="translate(115.92 -16.312) scale(.7)" xlink:href="#m"/>
<use transform="translate(178.67 -16.312) scale(.7)" xlink:href="#h"/>
<use transform="translate(223.21 -16.312) scale(.7)" xlink:href="#l"/>
<use transform="translate(244.25 -16.312) scale(.7)" xlink:href="#s"/>
</g>
<use x="440.807161" y="299.856" stroke="#000000" stroke-width="2" xlink:href="#f"/>
<use x="635.928241" y="299.856" stroke="#000000" stroke-width="2" xlink:href="#e"/>
<use x="440.807161" y="269.018667" stroke="#000000" stroke-width="2" xlink:href="#f"/>
<use x="635.928241" y="269.018667" stroke="#000000" stroke-width="2" xlink:href="#e"/>
<use x="440.807161" y="238.181333" stroke="#000000" stroke-width="2" xlink:href="#f"/>
<use x="635.928241" y="238.181333" stroke="#000000" stroke-width="2" xlink:href="#e"/>
<use x="440.807161" y="207.344" stroke="#000000" stroke-width="2" xlink:href="#f"/>
<use x="635.928241" y="207.344" stroke="#000000" stroke-width="2" xlink:href="#e"/>
<path d="m440.81 295.21 6.7283-1.5433 6.7283-1.3997 6.7283-1.3393 6.7283-1.7345 6.7283-2.1899 6.7283-2.3182 6.7283-2.4806 6.7283-3.2221 6.7283-3.1873 6.7283-3.4969 6.7283-3.4838 6.7283-3.6964 6.7283-3.2948 6.7283-3.1203 6.7283-2.6845 6.7283-2.3609 6.7283-2.2591 6.7283-1.9218 6.7283-1.3633 6.7283-0.61953 6.7283-0.2562 6.7283-0.009453 6.7283 0.2054 6.7283 0.33052 6.7283 0.2986 6.7283 0.45156 6.7283 0.80117 6.7283 0.8229 6.7283 0.7654" clip-path="url(#ab)" fill="none" stroke="#2094b5" stroke-linecap="square" stroke-width="1.5"/>
<path d="m440.81 295.96 6.7283-1.1927 6.7283-0.85711 6.7283-0.92237 6.7283-1.1447 6.7283-1.463 6.7283-1.7592 6.7283-1.7455 6.7283-2.0305 6.7283-2.609 6.7283-2.7984 6.7283-3.1148 6.7283-3.2239 6.7283-3.2117 6.7283-3.1327 6.7283-3.0689 6.7283-2.9515 6.7283-2.5403 6.7283-1.8407 6.7283-1.3868 6.7283-1.0324 6.7283-0.785 6.7283-0.56433 6.7283-0.37323 6.7283-0.16698 6.7283 0.005397 6.7283 0.13813 6.7283 0.29885 6.7283 0.32182 6.7283 0.35999" clip-path="url(#ab)" fill="none" stroke="#8a2be2" stroke-linecap="square" stroke-width="1.5"/>
<path d="m440.81 296.52 6.7283-0.96711 6.7283-0.95386 6.7283-1.0526 6.7283-1.261 6.7283-1.4701 6.7283-1.5158 6.7283-1.779 6.7283-1.8847 6.7283-2.2984 6.7283-2.391 6.7283-2.6122 6.7283-2.6139 6.7283-2.7817 6.7283-2.7848 6.7283-2.7291 6.7283-2.6782 6.7283-2.4052 6.7283-2.13 6.7283-1.7617 6.7283-1.4312 6.7283-1.0842 6.7283-0.70532 6.7283-0.43326 6.7283-0.31845 6.7283-0.15187 6.7283-0.038617 6.7283 0.10897 6.7283 0.11269 6.7283 0.13075" clip-path="url(#ab)" fill="none" stroke="#d20f39" stroke-linecap="square" stroke-width="1.5"/>
<path d="m440.81 299.86v-92.512" fill="none" stroke="#000" stroke-linecap="square" stroke-width="2"/>
<path d="m635.93 299.86v-92.512" fill="none" stroke="#000" stroke-linecap="square" stroke-width="2"/>
<path d="m440.81 299.86h195.12" fill="none" stroke="#000" stroke-linecap="square" stroke-width="2"/>
<path d="m440.81 207.34h195.12" fill="none" stroke="#000" stroke-linecap="square" stroke-width="2"/>
<path d="m635.93 299.86h195.12v-92.512h-195.12z" fill="#fff"/>
<use x="733.488781" y="299.856" stroke="#000000" stroke-width="2" xlink:href="#j"/>
<use x="733.488781" y="207.344" stroke="#000000" stroke-width="2" xlink:href="#i"/>
<g transform="translate(722.93 313.97) scale(.12 -.12)">
<use transform="translate(0 .76562)" xlink:href="#h"/>
<use transform="translate(63.623 .76562)" xlink:href="#g"/>
<use transform="translate(128.2 39.047) scale(.7)" xlink:href="#g"/>
</g>
<use x="831.049321" y="299.856" stroke="#000000" stroke-width="2" xlink:href="#j"/>
<use x="831.049321" y="207.344" stroke="#000000" stroke-width="2" xlink:href="#i"/>
<g transform="translate(820.49 313.97) scale(.12 -.12)">
<use transform="translate(0 .68438)" xlink:href="#h"/>
<use transform="translate(63.623 .68438)" xlink:href="#g"/>
<use transform="translate(128.2 38.966) scale(.7)" xlink:href="#h"/>
</g>
<use x="665.29689" y="299.856" stroke="#000000" xlink:href="#d"/>
<use x="665.29689" y="207.344" stroke="#000000" xlink:href="#c"/>
<use x="682.476448" y="299.856" stroke="#000000" xlink:href="#d"/>
<use x="682.476448" y="207.344" stroke="#000000" xlink:href="#c"/>
<use x="694.665539" y="299.856" stroke="#000000" xlink:href="#d"/>
<use x="694.665539" y="207.344" stroke="#000000" xlink:href="#c"/>
<use x="704.120132" y="299.856" stroke="#000000" xlink:href="#d"/>
<use x="704.120132" y="207.344" stroke="#000000" xlink:href="#c"/>
<use x="711.845097" y="299.856" stroke="#000000" xlink:href="#d"/>
<use x="711.845097" y="207.344" stroke="#000000" xlink:href="#c"/>
<use x="718.376462" y="299.856" stroke="#000000" xlink:href="#d"/>
<use x="718.376462" y="207.344" stroke="#000000" xlink:href="#c"/>
<use x="724.034188" y="299.856" stroke="#000000" xlink:href="#d"/>
<use x="724.034188" y="207.344" stroke="#000000" xlink:href="#c"/>
<use x="729.024656" y="299.856" stroke="#000000" xlink:href="#d"/>
<use x="729.024656" y="207.344" stroke="#000000" xlink:href="#c"/>
<use x="762.85743" y="299.856" stroke="#000000" xlink:href="#d"/>
<use x="762.85743" y="207.344" stroke="#000000" xlink:href="#c"/>
<use x="780.036988" y="299.856" stroke="#000000" xlink:href="#d"/>
<use x="780.036988" y="207.344" stroke="#000000" xlink:href="#c"/>
<use x="792.226079" y="299.856" stroke="#000000" xlink:href="#d"/>
<use x="792.226079" y="207.344" stroke="#000000" xlink:href="#c"/>
<use x="801.680672" y="299.856" stroke="#000000" xlink:href="#d"/>
<use x="801.680672" y="207.344" stroke="#000000" xlink:href="#c"/>
<use x="809.405637" y="299.856" stroke="#000000" xlink:href="#d"/>
<use x="809.405637" y="207.344" stroke="#000000" xlink:href="#c"/>
<use x="815.937002" y="299.856" stroke="#000000" xlink:href="#d"/>
<use x="815.937002" y="207.344" stroke="#000000" xlink:href="#c"/>
<use x="821.594728" y="299.856" stroke="#000000" xlink:href="#d"/>
<use x="821.594728" y="207.344" stroke="#000000" xlink:href="#c"/>
<use x="826.585196" y="299.856" stroke="#000000" xlink:href="#d"/>
<use x="826.585196" y="207.344" stroke="#000000" xlink:href="#c"/>
<g transform="translate(715.97 329.32) scale(.12 -.12)">
<use transform="translate(0 .09375)" xlink:href="#k"/>
<use transform="translate(41.113 .09375)" xlink:href="#l"/>
<use transform="translate(74.805 .09375)" xlink:href="#k"/>
<use transform="translate(115.92 -16.312) scale(.7)" xlink:href="#m"/>
<use transform="translate(178.67 -16.312) scale(.7)" xlink:href="#h"/>
<use transform="translate(223.21 -16.312) scale(.7)" xlink:href="#l"/>
<use transform="translate(244.25 -16.312) scale(.7)" xlink:href="#s"/>
</g>
<use x="635.928241" y="299.856" stroke="#000000" stroke-width="2" xlink:href="#f"/>
<use x="831.049321" y="299.856" stroke="#000000" stroke-width="2" xlink:href="#e"/>
<use x="635.928241" y="269.018667" stroke="#000000" stroke-width="2" xlink:href="#f"/>
<use x="831.049321" y="269.018667" stroke="#000000" stroke-width="2" xlink:href="#e"/>
<use x="635.928241" y="238.181333" stroke="#000000" stroke-width="2" xlink:href="#f"/>
<use x="831.049321" y="238.181333" stroke="#000000" stroke-width="2" xlink:href="#e"/>
<use x="635.928241" y="207.344" stroke="#000000" stroke-width="2" xlink:href="#f"/>
<use x="831.049321" y="207.344" stroke="#000000" stroke-width="2" xlink:href="#e"/>
<path d="m635.93 293.97 6.7283-1.7626 6.7283-1.7578 6.7283-1.7924 6.7283-2.3032 6.7283-2.3533 6.7283-2.3552 6.7283-2.7794 6.7283-3.2768 6.7283-3.5117 6.7283-3.7534 6.7283-3.9945 6.7283-4.5726 6.7283-4.9151 6.7283-5.0715 6.7283-5.5711 6.7283-5.6641 6.7283-4.991 6.7283-3.9285 6.7283-2.7067 6.7283-1.3425 6.7283-0.8784 6.7283-0.39163 6.7283-0.70385 6.7283-0.57234 6.7283-0.37594 6.7283-0.20123 6.7283-0.50975 6.7283-0.13942 6.7283-0.038133" clip-path="url(#ae)" fill="none" stroke="#2094b5" stroke-linecap="square" stroke-width="1.5"/>
<path d="m635.93 295.45 6.7283-0.98558 6.7283-1.0345 6.7283-1.188 6.7283-1.1732 6.7283-2.0291 6.7283-1.9643 6.7283-2.3531 6.7283-2.7825 6.7283-2.946 6.7283-3.2681 6.7283-3.6291 6.7283-4.1905 6.7283-4.2459 6.7283-4.5511 6.7283-4.4988 6.7283-4.3156 6.7283-3.9864 6.7283-3.5945 6.7283-3.0605 6.7283-2.7201 6.7283-2.2653 6.7283-1.8745 6.7283-1.4635 6.7283-1.0826 6.7283-0.93808 6.7283-0.72501 6.7283-0.56717 6.7283-0.25411 6.7283 0.13997" clip-path="url(#ae)" fill="none" stroke="#8a2be2" stroke-linecap="square" stroke-width="1.5"/>
<path d="m635.93 294.61 6.7283-1.1301 6.7283-1.371 6.7283-1.4761 6.7283-1.8312 6.7283-2.1263 6.7283-2.4941 6.7283-2.8768 6.7283-3.2038 6.7283-3.4057 6.7283-3.8522 6.7283-4.2844 6.7283-4.4633 6.7283-4.7432 6.7283-4.7714 6.7283-4.5153 6.7283-4.158 6.7283-3.888 6.7283-3.485 6.7283-3.1066 6.7283-2.6128 6.7283-2.0385 6.7283-1.7906 6.7283-1.5954 6.7283-1.3715 6.7283-1.0945 6.7283-0.86225 6.7283-0.72007 6.7283-0.47664 6.7283-0.025767" clip-path="url(#ae)" fill="none" stroke="#d20f39" stroke-linecap="square" stroke-width="1.5"/>
<path d="m635.93 299.86v-92.512" fill="none" stroke="#000" stroke-linecap="square" stroke-width="2"/>
<path d="m831.05 299.86v-92.512" fill="none" stroke="#000" stroke-linecap="square" stroke-width="2"/>
<path d="m635.93 299.86h195.12" fill="none" stroke="#000" stroke-linecap="square" stroke-width="2"/>
<path d="m635.93 207.34h195.12" fill="none" stroke="#000" stroke-linecap="square" stroke-width="2"/>
<defs>
<clipPath id="ai">
<rect x="50.565" y="22.32" width="195.12" height="185.02"/>
</clipPath>
<clipPath id="ad">
<rect x="245.69" y="22.32" width="195.12" height="185.02"/>
</clipPath>
<clipPath id="ac">
<rect x="440.81" y="22.32" width="195.12" height="185.02"/>
</clipPath>
<clipPath id="af">
<rect x="635.93" y="22.32" width="195.12" height="185.02"/>
</clipPath>
<clipPath id="ah">
<rect x="50.565" y="207.34" width="195.12" height="92.512"/>
</clipPath>
<clipPath id="ag">
<rect x="245.69" y="207.34" width="195.12" height="92.512"/>
</clipPath>
<clipPath id="ab">
<rect x="440.81" y="207.34" width="195.12" height="92.512"/>
</clipPath>
<clipPath id="ae">
<rect x="635.93" y="207.34" width="195.12" height="92.512"/>
</clipPath>
</defs>
</svg>

