<?xml version="1.0" encoding="UTF-8"?>
<svg viewBox="0 0 70 60" xmlns="http://www.w3.org/2000/svg" xmlns:xlink="http://www.w3.org/1999/xlink">
<defs>
<g id="c">
<path d="m0.82-6.07h1.22l1.55 4.13 1.55-4.13h1.23v6.07h-0.8v-5.33l-1.57 4.17h-0.82l-1.57-4.17v5.33h-0.79v-6.07z"/>
</g>
<g id="b">
<path d="m4.45-5.87v0.8c-0.31-0.15-0.6-0.26-0.88-0.33s-0.55-0.11-0.8-0.11c-0.45 0-0.8 0.09-1.04 0.26s-0.35 0.42-0.35 0.74c0 0.26 0.07 0.47 0.23 0.6 0.16 0.15 0.47 0.25 0.92 0.34l0.5 0.1c0.61 0.11 1.06 0.32 1.35 0.61 0.29 0.31 0.44 0.7 0.44 1.19 0 0.59-0.2 1.03-0.59 1.33-0.4 0.3-0.98 0.45-1.73 0.45-0.29 0-0.6-0.04-0.93-0.09-0.32-0.06-0.66-0.15-1-0.29v-0.85c0.34 0.19 0.66 0.34 0.98 0.43 0.31 0.1 0.63 0.14 0.95 0.14 0.46 0 0.82-0.09 1.08-0.27 0.25-0.19 0.38-0.45 0.38-0.79 0-0.3-0.09-0.54-0.27-0.71-0.19-0.16-0.48-0.29-0.9-0.37l-0.5-0.1c-0.62-0.12-1.06-0.31-1.33-0.57-0.28-0.26-0.41-0.62-0.41-1.09 0-0.53 0.18-0.95 0.57-1.26 0.37-0.31 0.9-0.47 1.56-0.47 0.28 0 0.57 0.03 0.87 0.08 0.29 0.05 0.59 0.13 0.9 0.23z"/>
</g>
<g id="f">
<path d="m0.27-6.07h0.84l1.27 5.13 1.28-5.13h0.92l1.27 5.13 1.28-5.13h0.83l-1.52 6.07h-1.04l-1.28-5.27-1.29 5.27h-1.03l-1.53-6.07z"/>
</g>
<g id="a">
<path d="m0.82-6.07h0.82v6.07h-0.82v-6.07z"/>
</g>
<g id="e">
<path d="m1.64-2.9v2.22h1.32c0.44 0 0.76-0.09 0.98-0.27 0.2-0.18 0.31-0.46 0.31-0.84 0-0.37-0.11-0.65-0.31-0.83-0.22-0.18-0.54-0.28-0.98-0.28h-1.32zm0-2.49v1.83h1.22c0.39 0 0.69-0.08 0.89-0.23s0.3-0.37 0.3-0.69c0-0.3-0.1-0.53-0.3-0.68s-0.5-0.23-0.89-0.23h-1.22zm-0.82-0.68h2.09c0.63 0 1.11 0.13 1.45 0.39 0.34 0.27 0.51 0.63 0.51 1.11 0 0.37-0.09 0.67-0.26 0.89-0.18 0.22-0.43 0.36-0.76 0.41 0.4 0.09 0.71 0.27 0.94 0.55 0.21 0.27 0.33 0.61 0.33 1.02 0 0.55-0.19 0.97-0.56 1.26-0.36 0.3-0.89 0.44-1.56 0.44h-2.18v-6.07z"/>
</g>
<g id="d">
<path d="m2.85-5.26-1.12 3.02h2.23l-1.11-3.02zm-0.47-0.81h0.93l2.32 6.07h-0.86l-0.55-1.56h-2.74l-0.55 1.56h-0.86l2.31-6.07z"/>
</g>
</defs>
<g class="layer">
<title>Layer 1</title>
<path d="m3.37 28.56h61.41c1.11 0 1.67-0.55 1.67-1.66v-22.99c0-1.11-0.56-1.67-1.67-1.67h-61.41c-1.11 0-1.66 0.56-1.66 1.67v22.99c0 1.11 0.55 1.66 1.66 1.66z" fill="#fff" fill-opacity=".8" stroke="#cbcbcb" stroke-miterlimit="10" stroke-opacity=".8"/>
<path d="m5.03 11.65h16.66v-5.83h-16.66v5.83z" fill="#d10e38" fill-opacity=".5"/>
<g transform="translate(-51.786 -83.214)">
<use x="80.14" y="94.86" xlink:href="#b"/>
<use x="85.42" y="94.86" xlink:href="#f"/>
<use x="93.66" y="94.86" xlink:href="#a"/>
<use x="96.11" y="94.86" xlink:href="#c"/>
<use x="103.3" y="94.86" xlink:href="#e"/>
<use x="109.01" y="94.86" xlink:href="#d"/>
</g>
<path d="m5.03 23.56h16.66v-5.82h-16.66v5.82z" fill="#1f93b4" fill-opacity=".5"/>
<g transform="translate(-51.786 -83.214)">
<use x="80.14" y="106.77" xlink:href="#b"/>
<use x="85.42" y="106.77" xlink:href="#a"/>
<use x="87.88" y="106.77" xlink:href="#c"/>
<use x="95.06" y="106.77" xlink:href="#e"/>
<use x="100.78" y="106.77" xlink:href="#d"/>
</g>
<path d="m3.01 56.92h61.41c1.11 0 1.67-0.56 1.67-1.67v-22.99c0-1.11-0.56-1.66-1.67-1.66h-61.41c-1.11 0-1.66 0.55-1.66 1.66v22.99c0 1.11 0.55 1.67 1.66 1.67z" fill="#fff" fill-opacity=".8" stroke="#cbcbcb" stroke-miterlimit="10" stroke-opacity=".8"/>
<path d="m4.68 37.09h16.66" fill="none" stroke="#000" stroke-linecap="square" stroke-linejoin="round" stroke-miterlimit="10" stroke-width="1.5"/>
<g transform="translate(-52.143 -200.71)">
<use x="80.14" y="240.72" xlink:href="#b"/>
<use x="85.42" y="240.72" xlink:href="#f"/>
<use x="93.66" y="240.72" xlink:href="#a"/>
<use x="96.11" y="240.72" xlink:href="#c"/>
<use x="103.3" y="240.72" xlink:href="#e"/>
<use x="109.01" y="240.72" xlink:href="#d"/>
</g>
<path d="m4.68 49h16.66" fill="none" stroke="#000" stroke-dasharray="5.55 2.4" stroke-linejoin="round" stroke-miterlimit="10" stroke-width="1.5"/>
<g transform="translate(-52.143 -200.71)">
<use x="80.14" y="252.63" xlink:href="#b"/>
<use x="85.42" y="252.63" xlink:href="#a"/>
<use x="87.88" y="252.63" xlink:href="#c"/>
<use x="95.06" y="252.63" xlink:href="#e"/>
<use x="100.78" y="252.63" xlink:href="#d"/>
</g>
</g>
</svg>

